<svg width="319" height="162" viewBox="0 0 319 162" fill="none" xmlns="http://www.w3.org/2000/svg">
<g clip-path="url(#clip0_1_8610)">
<g clip-path="url(#clip1_1_8610)">
<g clip-path="url(#clip2_1_8610)">
<path fill-rule="evenodd" clip-rule="evenodd" d="M179.761 103.012C169.116 110.83 153.688 115.001 140.404 115.001C121.778 115.001 105.01 108.137 92.3242 96.7204C91.3275 95.8226 92.2205 94.5992 93.4165 95.2983C107.107 103.235 124.035 108.009 141.52 108.009C153.313 108.009 166.286 105.578 178.214 100.534C180.016 99.7711 181.523 101.709 179.761 103.012Z" fill="#9F9F9F"/>
<path fill-rule="evenodd" clip-rule="evenodd" d="M184.186 97.9675C182.831 96.2356 175.192 97.1492 171.764 97.5544C170.719 97.6815 170.56 96.7758 171.5 96.1244C177.584 91.8582 187.567 93.0896 188.731 94.5196C189.895 95.9576 188.428 105.928 182.711 110.687C181.834 111.418 180.997 111.028 181.387 110.059C182.671 106.865 185.55 99.7074 184.186 97.9675Z" fill="#9F9F9F"/>
<path fill-rule="evenodd" clip-rule="evenodd" d="M172.004 66.0059V61.8588C172.004 61.2312 172.483 60.8101 173.057 60.8101H191.69C192.289 60.8101 192.767 61.2391 192.767 61.8588V65.41C192.759 66.0059 192.257 66.7844 191.364 68.0158L181.708 81.7519C185.296 81.6645 189.083 82.1968 192.336 84.0241C193.07 84.4372 193.269 85.0409 193.325 85.6368V90.0619C193.325 90.6657 192.655 91.3727 191.954 91.0073C186.221 88.0122 178.606 87.6865 172.267 91.0391C171.621 91.3886 170.944 90.6895 170.944 90.0857V85.8831C170.944 85.2078 170.952 84.0558 171.629 83.031L182.816 67.0466H173.081C172.483 67.0466 172.004 66.6255 172.004 66.0059Z" fill="#9F9F9F"/>
<path fill-rule="evenodd" clip-rule="evenodd" d="M104.031 91.8816H98.3617C97.8195 91.8419 97.3889 91.4367 97.3491 90.9203V61.9308C97.3491 61.3508 97.8355 60.89 98.4414 60.89H103.728C104.278 60.9139 104.717 61.3349 104.756 61.8593V65.6488H104.86C106.239 61.9864 108.831 60.2783 112.323 60.2783C115.871 60.2783 118.088 61.9864 119.683 65.6488C121.054 61.9864 124.172 60.2783 127.513 60.2783C129.889 60.2783 132.488 61.2555 134.075 63.4482C135.869 65.8872 135.502 69.4304 135.502 72.5367L135.494 90.833C135.494 91.4129 135.008 91.8816 134.402 91.8816H128.74C128.174 91.8419 127.72 91.3891 127.72 90.833V75.4682C127.72 74.2448 127.831 71.1941 127.56 70.0342C127.138 68.0878 125.87 67.5396 124.228 67.5396C122.856 67.5396 121.421 68.4532 120.839 69.915C120.257 71.3768 120.313 73.8237 120.313 75.4682V90.833C120.313 91.4129 119.826 91.8816 119.22 91.8816H113.559C112.985 91.8419 112.538 91.3891 112.538 90.833L112.531 75.4682C112.531 72.2348 113.065 67.4761 109.038 67.4761C104.964 67.4761 105.123 72.1157 105.123 75.4682V90.833C105.123 91.4129 104.637 91.8816 104.031 91.8816Z" fill="#9F9F9F"/>
<path fill-rule="evenodd" clip-rule="evenodd" d="M208.809 60.2783C217.221 60.2783 221.774 67.4761 221.774 76.6281C221.774 85.4704 216.743 92.4854 208.809 92.4854C200.549 92.4854 196.052 85.2877 196.052 76.3183C196.052 67.2933 200.605 60.2783 208.809 60.2783ZM208.857 66.197C204.679 66.197 204.416 71.8694 204.416 75.4047C204.416 78.9479 204.36 86.5111 208.809 86.5111C213.203 86.5111 213.41 80.4097 213.41 76.6917C213.41 74.2448 213.306 71.3212 212.565 69.0014C211.927 66.9835 210.659 66.197 208.857 66.197Z" fill="#9F9F9F"/>
<path fill-rule="evenodd" clip-rule="evenodd" d="M232.682 91.8816H227.037C226.471 91.8419 226.016 91.3891 226.016 90.833L226.008 61.8354C226.056 61.3032 226.526 60.89 227.1 60.89H232.355C232.849 60.9139 233.256 61.2476 233.368 61.7004V66.1334H233.471C235.058 62.1691 237.282 60.2783 241.197 60.2783C243.741 60.2783 246.221 61.1919 247.815 63.6945C249.298 66.0143 249.298 69.915 249.298 72.7194V90.968C249.235 91.4765 248.764 91.8816 248.206 91.8816H242.521C242.003 91.8419 241.572 91.4606 241.516 90.968V75.222C241.516 72.0521 241.883 67.4125 237.968 67.4125C236.589 67.4125 235.321 68.3341 234.691 69.7323C233.894 71.5039 233.79 73.2676 233.79 75.222V90.833C233.782 91.4129 233.288 91.8816 232.682 91.8816Z" fill="#9F9F9F"/>
<path fill-rule="evenodd" clip-rule="evenodd" d="M157.15 78.0341C157.15 80.2347 157.205 82.0699 156.089 84.0243C155.188 85.6132 153.753 86.5903 152.166 86.5903C149.99 86.5903 148.714 84.9379 148.714 82.4989C148.714 77.6845 153.043 76.8106 157.15 76.8106V78.0341ZM162.867 91.8019C162.492 92.1356 161.95 92.1595 161.527 91.937C159.645 90.3799 159.302 89.6569 158.274 88.1713C155.164 91.3332 152.956 92.2786 148.929 92.2786C144.153 92.2786 140.445 89.3471 140.445 83.4761C140.445 78.8921 142.933 75.7699 146.489 74.2445C149.567 72.894 153.865 72.6556 157.15 72.2822V71.5513C157.15 70.2087 157.253 68.6198 156.456 67.4599C155.77 66.4192 154.447 65.9902 153.275 65.9902C151.114 65.9902 149.192 67.0945 148.722 69.3825C148.626 69.8909 148.251 70.3914 147.733 70.4153L142.239 69.8274C141.777 69.7241 141.259 69.3507 141.394 68.6437C142.654 62.002 148.682 60 154.072 60C156.831 60 160.435 60.7309 162.611 62.8124C165.37 65.3784 165.107 68.8025 165.107 72.5285V81.3311C165.107 83.9766 166.207 85.1365 167.244 86.5665C167.603 87.075 167.683 87.6867 167.22 88.068C166.064 89.0293 164.007 90.8168 162.875 91.8178L162.867 91.8019Z" fill="#9F9F9F"/>
<path fill-rule="evenodd" clip-rule="evenodd" d="M82.8293 78.0341C82.8293 80.2347 82.8851 82.0699 81.7688 84.0242C80.8678 85.6131 79.4406 86.5903 77.8459 86.5903C75.6692 86.5903 74.4014 84.9379 74.4014 82.4989C74.4014 77.6845 78.731 76.8106 82.8293 76.8106V78.0341ZM88.5462 91.8019C88.1715 92.1356 87.6293 92.1594 87.2067 91.937C85.325 90.3799 84.9901 89.6569 83.9535 88.1713C80.8439 91.3332 78.6433 92.2786 74.6087 92.2786C69.8406 92.2786 66.125 89.3471 66.125 83.4761C66.125 78.8921 68.6207 75.7699 72.1688 74.2445C75.2466 72.894 79.5443 72.6556 82.8293 72.2822V71.5513C82.8293 70.2087 82.933 68.6198 82.1436 67.4599C81.4499 66.4192 80.1263 65.9902 78.9622 65.9902C76.8014 65.9902 74.8718 67.0945 74.4014 69.3825C74.3057 69.8909 73.931 70.3914 73.4207 70.4153L67.919 69.8274C67.4566 69.7241 66.9463 69.3507 67.0738 68.6436C68.3416 62.002 74.3615 60 79.7516 60C82.5104 60 86.1143 60.7309 88.2911 62.8124C91.0499 65.3784 90.7868 68.8025 90.7868 72.5285V81.331C90.7868 83.9766 91.8871 85.1365 92.9236 86.5665C93.2904 87.0749 93.3701 87.6867 92.9077 88.068C91.7515 89.0293 89.6944 90.8168 88.5622 91.8178L88.5462 91.8019Z" fill="#9F9F9F"/>
</g>
</g>
</g>
<defs>
<clipPath id="clip0_1_8610">
<rect width="184" height="80" fill="white" transform="translate(66.125 40)"/>
</clipPath>
<clipPath id="clip1_1_8610">
<rect width="184" height="80" fill="white" transform="translate(66.125 40)"/>
</clipPath>
<clipPath id="clip2_1_8610">
<rect width="184" height="80" fill="white" transform="translate(66.125 40)"/>
</clipPath>
</defs>
</svg>
