<svg width="319" height="162" viewBox="0 0 319 162" fill="none" xmlns="http://www.w3.org/2000/svg">
<g clip-path="url(#clip0_1_8623)">
<g clip-path="url(#clip1_1_8623)">
<g clip-path="url(#clip2_1_8623)">
<path fill-rule="evenodd" clip-rule="evenodd" d="M244.267 91.3331C244.377 92.5929 245.385 94.1965 247.132 94.1965H248.152C248.549 94.1965 248.874 93.872 248.874 93.4757V71.0108H248.869C248.849 70.6323 248.536 70.3292 248.152 70.3292H244.988C244.604 70.3292 244.292 70.6323 244.272 71.0108H244.267V72.8362C242.327 70.4457 239.27 69.4536 236.205 69.4536C229.235 69.4536 223.586 75.1075 223.586 82.0824C223.586 89.0578 229.235 94.7118 236.205 94.7118C239.27 94.7118 242.612 93.522 244.267 91.3303V91.3331ZM236.216 90.292C231.784 90.292 228.191 86.6167 228.191 82.0824C228.191 77.549 231.784 73.8736 236.216 73.8736C240.65 73.8736 244.242 77.549 244.242 82.0824C244.242 86.6167 240.65 90.292 236.216 90.292Z" fill="#9F9F9F"/>
<path fill-rule="evenodd" clip-rule="evenodd" d="M219.583 80.4812C219.583 73.9284 215.453 69.5078 208.865 69.5078C205.721 69.5078 203.143 71.3275 202.233 72.8906C202.036 71.6683 201.388 70.3836 199.377 70.3836H198.352C197.956 70.3836 197.632 70.7084 197.632 71.1047V91.3894V91.3926V93.5716H197.636C197.657 93.9494 197.97 94.2528 198.353 94.2528H201.518C201.566 94.2528 201.614 94.2471 201.66 94.2382C201.681 94.2341 201.7 94.2258 201.721 94.2201C201.744 94.2128 201.769 94.2072 201.791 94.198C201.819 94.1863 201.845 94.1707 201.871 94.156C201.884 94.1481 201.897 94.1427 201.91 94.1345C201.941 94.114 201.97 94.0895 201.998 94.0645C202.003 94.0599 202.008 94.0568 202.013 94.0525C202.044 94.022 202.073 93.9884 202.098 93.9535C202.178 93.8447 202.226 93.713 202.234 93.5716H202.238V80.3009C202.238 76.7816 205.089 73.9284 208.606 73.9284C212.123 73.9284 214.974 76.7816 214.974 80.3009L214.977 91.3934V91.3894C214.977 91.3993 214.979 91.4094 214.979 91.4199V93.5716H214.983C215.004 93.9494 215.317 94.2528 215.699 94.2528H218.865C218.913 94.2528 218.961 94.2471 219.006 94.2382C219.025 94.2347 219.042 94.2271 219.061 94.222C219.087 94.2145 219.113 94.2081 219.138 94.198C219.164 94.1873 219.188 94.1723 219.212 94.1585C219.227 94.1501 219.243 94.144 219.257 94.1345C219.286 94.1152 219.313 94.092 219.339 94.0691C219.346 94.0628 219.354 94.0582 219.36 94.052C219.39 94.023 219.417 93.9917 219.441 93.959C219.443 93.9565 219.445 93.9545 219.447 93.952C219.525 93.8442 219.572 93.714 219.581 93.5734V93.5716H219.585L219.583 80.4812Z" fill="#9F9F9F"/>
<path fill-rule="evenodd" clip-rule="evenodd" d="M186.62 91.3331C186.731 92.5929 187.739 94.1965 189.484 94.1965H190.506C190.902 94.1965 191.226 93.872 191.226 93.4757V71.0108H191.222C191.201 70.6323 190.888 70.3292 190.506 70.3292H187.341C186.958 70.3292 186.645 70.6323 186.624 71.0108H186.62V72.8362C184.681 70.4457 181.623 69.4536 178.557 69.4536C171.588 69.4536 165.938 75.1075 165.938 82.0825C165.938 89.0578 171.588 94.7119 178.557 94.7119C181.623 94.7119 184.965 93.5221 186.62 91.3303V91.3331ZM178.569 90.2919C174.137 90.2919 170.544 86.6168 170.544 82.0825C170.544 77.549 174.137 73.8736 178.569 73.8736C183.002 73.8736 186.595 77.549 186.595 82.0825C186.595 86.6168 183.002 90.2919 178.569 90.2919Z" fill="#9F9F9F"/>
<path fill-rule="evenodd" clip-rule="evenodd" d="M147.221 88.1156C149.334 89.5805 151.64 90.2921 153.857 90.2921C155.968 90.2921 158.151 89.1966 158.151 87.2897C158.151 84.7441 153.394 84.348 150.406 83.3315C147.417 82.315 144.842 80.2137 144.842 76.8107C144.842 71.6037 149.478 69.4531 153.805 69.4531C156.547 69.4531 159.376 70.3579 161.21 71.6539C161.841 72.1329 161.456 72.6827 161.456 72.6827L159.706 75.1849C159.509 75.4667 159.165 75.7102 158.671 75.4052C158.177 75.1004 156.445 73.8733 153.805 73.8733C151.165 73.8733 149.575 75.0935 149.575 76.6058C149.575 78.4193 151.642 78.9897 154.063 79.6078C158.282 80.7458 162.884 82.1138 162.884 87.2897C162.884 91.8776 158.596 94.7128 153.857 94.7128C150.265 94.7128 147.208 93.6882 144.643 91.8049C144.109 91.2699 144.482 90.773 144.482 90.773L146.224 88.2835C146.579 87.8181 147.025 87.9804 147.221 88.1156Z" fill="#9F9F9F"/>
<path fill-rule="evenodd" clip-rule="evenodd" d="M135.053 91.3331C135.163 92.5929 136.171 94.1965 137.917 94.1965H138.938C139.334 94.1965 139.659 93.872 139.659 93.4757V71.0108H139.654C139.634 70.6323 139.321 70.3292 138.938 70.3292H135.773C135.39 70.3292 135.078 70.6323 135.057 71.0108H135.053V72.8362C133.113 70.4457 130.056 69.4536 126.99 69.4536C120.021 69.4536 114.371 75.1075 114.371 82.0825C114.371 89.0578 120.021 94.7119 126.99 94.7119C130.056 94.7119 133.397 93.5221 135.052 91.3303L135.053 91.3331ZM127.002 90.2919C122.57 90.2919 118.977 86.6168 118.977 82.0825C118.977 77.549 122.57 73.8736 127.002 73.8736C131.435 73.8736 135.027 77.549 135.027 82.0825C135.027 86.6168 131.435 90.2919 127.002 90.2919Z" fill="#9F9F9F"/>
<path fill-rule="evenodd" clip-rule="evenodd" d="M96.6799 82.9431C91.99 82.9431 88.1879 86.7451 88.1879 91.4354C88.1879 96.1255 91.99 99.9275 96.6799 99.9275C101.37 99.9275 105.172 96.1255 105.172 91.4354C105.172 86.7451 101.37 82.9431 96.6799 82.9431ZM74.617 82.9439C69.927 82.9439 66.125 86.7451 66.125 91.4354C66.125 96.1255 69.927 99.9275 74.617 99.9275C79.3072 99.9275 83.1094 96.1255 83.1094 91.4354C83.1094 86.7451 79.3072 82.9439 74.617 82.9439ZM94.1404 72.3278C94.1404 77.0181 90.3386 80.8205 85.6485 80.8205C80.9584 80.8205 77.1565 77.0181 77.1565 72.3278C77.1565 67.6384 80.9584 63.8359 85.6485 63.8359C90.3386 63.8359 94.1404 67.6384 94.1404 72.3278Z" fill="#9F9F9F"/>
</g>
</g>
</g>
<defs>
<clipPath id="clip0_1_8623">
<rect width="184" height="70" fill="white" transform="translate(66.125 45)"/>
</clipPath>
<clipPath id="clip1_1_8623">
<rect width="184" height="70" fill="white" transform="translate(66.125 45)"/>
</clipPath>
<clipPath id="clip2_1_8623">
<rect width="184" height="70" fill="white" transform="translate(66.125 45)"/>
</clipPath>
</defs>
</svg>
