<svg width="40" height="40" viewBox="0 0 40 40" fill="none" xmlns="http://www.w3.org/2000/svg">
<rect width="40" height="40" rx="20" fill="#0A0A0A" fill-opacity="0.06"/>
<path d="M25.4492 24.4492C25.1914 24.6836 24.9336 24.6836 24.6758 24.4492L20 19.8086L15.3242 24.4492C15.0664 24.6836 14.8086 24.6836 14.5508 24.4492C14.3164 24.1914 14.3164 23.9336 14.5508 23.6758L19.1914 19L14.5508 14.3242C14.3164 14.0664 14.3164 13.8086 14.5508 13.5508C14.8086 13.3164 15.0664 13.3164 15.3242 13.5508L20 18.1914L24.6758 13.5508C24.9336 13.3164 25.1914 13.3164 25.4492 13.5508C25.6836 13.8086 25.6836 14.0664 25.4492 14.3242L20.8086 19L25.4492 23.6758C25.6836 23.9336 25.6836 24.1914 25.4492 24.4492Z" fill="#141414"/>
</svg>
