<svg width="319" height="155" viewBox="0 0 319 155" fill="none" xmlns="http://www.w3.org/2000/svg">
<g clip-path="url(#clip0_1_8562)">
<g clip-path="url(#clip1_1_8562)">
<g clip-path="url(#clip2_1_8562)">
<path d="M66.125 46.2266H105.845V66.0868H85.9852L66.125 46.2266ZM66.125 66.0868H85.9852L105.845 85.9469H66.125V66.0868ZM66.125 85.9469H85.9852V105.807L66.125 85.9469Z" fill="#9F9F9F"/>
<path d="M128.257 61.8945H144.313V66.9965H134.334V74.0867H144.313V79.076H134.334V88.1543H128.257V61.8945ZM147.614 70.0723H153.354V73.8613C153.653 72.5592 154.267 71.5597 155.192 70.8601C156.14 70.1341 157.194 69.7724 158.343 69.7724C158.944 69.7724 159.444 69.8233 159.843 69.9224V75.2497C159.271 75.1807 158.695 75.1434 158.118 75.1371C156.542 75.1371 155.355 75.6486 154.554 76.6745C153.755 77.6749 153.354 79.1751 153.354 81.1768V88.1543H147.616V70.0723H147.614ZM168.904 88.6422C167.154 88.6422 165.628 88.2288 164.327 87.4037C163.052 86.5787 162.037 85.4074 161.401 84.0272C160.726 82.5779 160.386 80.9378 160.386 79.1133C160.386 77.3124 160.739 75.6859 161.439 74.2366C162.095 72.8364 163.136 71.6524 164.44 70.8228C165.764 69.9978 167.278 69.5844 168.98 69.5844C170.254 69.5844 171.394 69.8606 172.393 70.4103C173.393 70.9619 174.143 71.7124 174.644 72.661V70.0723H180.346V88.1543H174.644V85.6028C174.143 86.5033 173.368 87.2402 172.318 87.8163C171.268 88.3733 170.094 88.6567 168.904 88.6422ZM170.555 83.8773C171.93 83.8773 172.993 83.4275 173.744 82.527C174.494 81.6266 174.869 80.4881 174.869 79.1133C174.869 77.763 174.494 76.6372 173.744 75.7368C172.993 74.8363 171.93 74.3865 170.555 74.3865C169.253 74.3865 168.204 74.8236 167.404 75.6995C166.629 76.5754 166.241 77.7122 166.241 79.1133C166.241 80.5144 166.629 81.6638 167.404 82.5643C168.204 83.4402 169.255 83.8773 170.555 83.8773ZM184.36 70.0723H190.1V72.6983C190.502 71.7715 191.15 71.0209 192.05 70.4476C192.977 69.8742 194.052 69.5844 195.277 69.5844C198.128 69.5844 200.017 70.6965 200.941 72.9236C201.45 71.9141 202.246 71.0791 203.23 70.523C204.282 69.8897 205.491 69.5653 206.718 69.5844C210.995 69.5844 213.133 72.034 213.133 76.9371V88.1543H207.356V77.9875C207.356 76.7635 207.131 75.8631 206.681 75.287C206.23 74.7127 205.555 74.4238 204.655 74.4238C203.68 74.4238 202.929 74.7618 202.404 75.4369C201.879 76.0875 201.616 77.2242 201.616 78.8507V88.1543H195.839V77.9502C195.839 76.7254 195.615 75.8367 195.164 75.287C194.74 74.7127 194.076 74.4238 193.178 74.4238C192.176 74.4238 191.413 74.7618 190.888 75.4369C190.363 76.0875 190.1 77.2242 190.1 78.8507V88.1543H184.362V70.0723H184.36ZM234.695 78.1756C234.695 78.9497 234.644 79.7884 234.543 80.6889H221.19C221.241 81.8646 221.64 82.7633 222.39 83.3903C223.141 84.0145 224.156 84.328 225.429 84.328C227.205 84.328 228.331 83.7892 228.805 82.7142H234.433C234.156 84.4906 233.181 85.9272 231.506 87.0285C229.856 88.1034 227.83 88.6422 225.429 88.6422C222.329 88.6422 219.89 87.8035 218.113 86.128C216.363 84.4516 215.487 82.1145 215.487 79.1133C215.487 77.1624 215.887 75.4742 216.688 74.0485C217.461 72.6247 218.653 71.4725 220.102 70.7474C221.578 69.9732 223.291 69.5844 225.244 69.5844C227.093 69.5844 228.73 69.9469 230.156 70.6729C231.606 71.3989 232.72 72.4111 233.494 73.7114C234.295 75.0135 234.695 76.5009 234.695 78.1756ZM229.028 77.1252C229.004 75.9249 228.666 75.0108 228.015 74.3865C227.366 73.7623 226.427 73.4488 225.202 73.4488C223.977 73.4488 223.002 73.7859 222.276 74.4619C221.576 75.1125 221.214 75.9994 221.187 77.1252H229.028ZM237.226 70.0723H242.966V73.8613C243.266 72.5592 243.879 71.5597 244.804 70.8601C245.702 70.1532 246.812 69.7697 247.955 69.7724C248.555 69.7724 249.056 69.8233 249.455 69.9224V75.2497C248.883 75.1807 248.307 75.1434 247.73 75.1371C246.154 75.1371 244.967 75.6486 244.166 76.6745C243.365 77.6749 242.966 79.1751 242.966 81.1768V88.1543H237.226V70.0723Z" fill="#9F9F9F"/>
</g>
</g>
</g>
<defs>
<clipPath id="clip0_1_8562">
<rect width="184" height="66" fill="white" transform="translate(66.125 43.5)"/>
</clipPath>
<clipPath id="clip1_1_8562">
<rect width="184" height="66" fill="white" transform="translate(66.125 43.5)"/>
</clipPath>
<clipPath id="clip2_1_8562">
<rect width="184" height="66" fill="white" transform="translate(66.125 43.5)"/>
</clipPath>
</defs>
</svg>
