<svg width="319" height="155" viewBox="0 0 319 155" fill="none" xmlns="http://www.w3.org/2000/svg">
<g clip-path="url(#clip0_1_8553)">
<g clip-path="url(#clip1_1_8553)">
<g clip-path="url(#clip2_1_8553)">
<path d="M66.4226 79.0796L85.7612 98.4182C75.8856 96.7489 68.0919 88.9552 66.4226 79.0796Z" fill="#9F9F9F"/>
<path d="M66.125 73.8296L91.0113 98.7159C92.4913 98.6368 93.9352 98.4216 95.3305 98.0825L66.7583 69.5103C66.4193 70.9058 66.2041 72.3496 66.125 73.8296Z" fill="#9F9F9F"/>
<path d="M67.9971 65.7961L99.0446 96.8437C100.175 96.3583 101.261 95.7874 102.292 95.1389L69.7019 62.5483C69.0534 63.58 68.4824 64.6653 67.9971 65.7961Z" fill="#9F9F9F"/>
<path d="M71.8052 59.6994C76.1402 54.6623 82.5624 51.4727 89.7295 51.4727C102.785 51.4727 113.368 62.056 113.368 75.1113C113.368 82.2784 110.179 88.7006 105.141 93.0356L71.8052 59.6994Z" fill="#9F9F9F"/>
<path d="M137.996 89.2669H155.317V84.5502H143.717V62.2094H137.996V89.2669ZM158.999 89.2669H164.628V68.9738H158.999V89.2669ZM161.826 66.5692C163.465 66.5692 164.878 65.3273 164.878 63.7155C164.878 62.1169 163.465 60.875 161.826 60.875C160.202 60.875 158.788 62.1169 158.788 63.7155C158.788 65.3273 160.202 66.5692 161.826 66.5692ZM174.764 77.5349C174.777 74.919 176.336 73.3864 178.609 73.3864C180.868 73.3864 182.229 74.8662 182.216 77.35V89.2669H187.844V76.3459C187.844 71.6161 185.069 68.7095 180.842 68.7095C177.829 68.7095 175.649 70.1892 174.738 72.5541H174.5V68.9738H169.136V89.2669H174.764V77.5349ZM201.581 89.6633C206.614 89.6633 209.983 87.219 210.776 83.4537L205.584 83.1102C205.015 84.6561 203.549 85.4619 201.686 85.4619C198.872 85.4619 197.089 83.599 197.089 80.5736V80.5604H210.908V79.0146C210.908 72.1181 206.733 68.7095 201.369 68.7095C195.397 68.7095 191.527 72.9505 191.527 79.2128C191.527 85.6469 195.345 89.6633 201.581 89.6633ZM197.089 77.0725C197.194 74.7605 198.965 72.9108 201.462 72.9108C203.893 72.9108 205.584 74.6548 205.61 77.0725H197.089ZM220.447 89.6501C223.446 89.6501 225.388 88.3421 226.379 86.4528H226.537V89.2669H231.875V75.5796C231.875 70.7441 227.74 68.7095 223.353 68.7095C218.359 68.7095 215.202 71.0348 214.422 74.734L219.628 75.1568C220.011 73.8092 221.213 72.8183 223.235 72.8183C225.177 72.8183 226.234 73.7696 226.247 75.4739C226.26 76.8083 224.86 77.0064 221.332 77.35C217.316 77.7199 213.709 79.0675 213.709 83.599C213.709 87.6154 216.576 89.6501 220.447 89.6501ZM222.059 85.7658C220.328 85.7658 219.086 84.9599 219.086 83.4141C219.086 81.8288 220.394 81.0491 222.376 80.7718C223.604 80.6 225.612 80.3094 226.286 79.8602V82.0137C226.286 84.1408 224.529 85.7658 222.059 85.7658ZM236.241 89.2669H241.87V77.7859C241.883 75.3021 243.68 73.5978 245.952 73.5978C246.718 73.5978 247.339 73.8092 247.868 74.0735L249.559 69.423C248.819 68.9738 247.868 68.6831 246.784 68.6831C244.499 68.6831 242.649 70.0043 241.909 72.5145H241.698V68.9738H236.241V89.2669Z" fill="#9F9F9F"/>
</g>
</g>
</g>
<defs>
<clipPath id="clip0_1_8553">
<rect width="184" height="60" fill="white" transform="translate(66.125 46.5)"/>
</clipPath>
<clipPath id="clip1_1_8553">
<rect width="184" height="60" fill="white" transform="translate(66.125 46.5)"/>
</clipPath>
<clipPath id="clip2_1_8553">
<rect width="184" height="60" fill="white" transform="translate(66.125 46.5)"/>
</clipPath>
</defs>
</svg>
