<svg width="45" height="45" viewBox="0 0 45 45" fill="none" xmlns="http://www.w3.org/2000/svg">
<rect x="0.5" y="0.5" width="44" height="44" rx="4.5" stroke="#D9DDE0"/>
<path d="M19.6875 22.5C19.7109 21.7031 19.9805 21.0352 20.4961 20.4961C21.0352 19.9805 21.7031 19.7109 22.5 19.6875C23.2969 19.7109 23.9648 19.9805 24.5039 20.4961C25.0195 21.0352 25.2891 21.7031 25.3125 22.5C25.2891 23.2969 25.0195 23.9648 24.5039 24.5039C23.9648 25.0195 23.2969 25.2891 22.5 25.3125C21.7031 25.2891 21.0352 25.0195 20.4961 24.5039C19.9805 23.9648 19.7109 23.2969 19.6875 22.5ZM22.5 13.5C22.8281 13.5 23.0977 13.6055 23.3086 13.8164C23.5195 14.0273 23.625 14.2969 23.625 14.625V15.8555C25.0547 16.1133 26.2734 16.7344 27.2812 17.7188C28.2656 18.7266 28.8867 19.9453 29.1445 21.375H30.375C30.7031 21.375 30.9727 21.4805 31.1836 21.6914C31.3945 21.9023 31.5 22.1719 31.5 22.5C31.5 22.8281 31.3945 23.0977 31.1836 23.3086C30.9727 23.5195 30.7031 23.625 30.375 23.625H29.1445C28.8867 25.0547 28.2656 26.2734 27.2812 27.2812C26.2734 28.2656 25.0547 28.8867 23.625 29.1445V30.375C23.625 30.7031 23.5195 30.9727 23.3086 31.1836C23.0977 31.3945 22.8281 31.5 22.5 31.5C22.1719 31.5 21.9023 31.3945 21.6914 31.1836C21.4805 30.9727 21.375 30.7031 21.375 30.375V29.1445C19.9453 28.8867 18.7266 28.2656 17.7188 27.2812C16.7344 26.2734 16.1133 25.0547 15.8555 23.625H14.625C14.2969 23.625 14.0273 23.5195 13.8164 23.3086C13.6055 23.0977 13.5 22.8281 13.5 22.5C13.5 22.1719 13.6055 21.9023 13.8164 21.6914C14.0273 21.4805 14.2969 21.375 14.625 21.375H15.8555C16.1133 19.9453 16.7344 18.7266 17.7188 17.7188C18.7266 16.7344 19.9453 16.1133 21.375 15.8555V14.625C21.375 14.2969 21.4805 14.0273 21.6914 13.8164C21.9023 13.6055 22.1719 13.5 22.5 13.5ZM18 22.5C18.0234 23.7656 18.457 24.832 19.3008 25.6992C20.168 26.543 21.2344 26.9766 22.5 27C23.7656 26.9766 24.832 26.543 25.6992 25.6992C26.543 24.832 26.9766 23.7656 27 22.5C26.9766 21.2344 26.543 20.168 25.6992 19.3008C24.832 18.457 23.7656 18.0234 22.5 18C21.2344 18.0234 20.168 18.457 19.3008 19.3008C18.457 20.168 18.0234 21.2344 18 22.5Z" fill="#141414"/>
</svg>
