<svg width="1275" height="319" viewBox="0 0 1275 319" fill="none" xmlns="http://www.w3.org/2000/svg">
<mask id="path-1-inside-1_1_8551" fill="white">
<path d="M0 0H1275V319H0V0Z"/>
</mask>
<path d="M0 0V-2H-2V0H0ZM0 0V2H1275V0V-2H0V0ZM0 319H2V0H0H-2V319H0Z" fill="#D9DDE0" mask="url(#path-1-inside-1_1_8551)"/>
<g clip-path="url(#clip0_1_8551)">
<g clip-path="url(#clip1_1_8551)">
<g clip-path="url(#clip2_1_8551)">
<path d="M68.4226 81.0796L87.7612 100.418C77.8856 98.7489 70.0919 90.9552 68.4226 81.0796Z" fill="#9F9F9F"/>
<path d="M68.125 75.8296L93.0113 100.716C94.4913 100.637 95.9352 100.422 97.3305 100.082L68.7583 71.5103C68.4193 72.9058 68.2041 74.3496 68.125 75.8296Z" fill="#9F9F9F"/>
<path d="M69.9971 67.7961L101.045 98.8437C102.175 98.3583 103.261 97.7874 104.292 97.1389L71.7019 64.5483C71.0534 65.58 70.4824 66.6653 69.9971 67.7961Z" fill="#9F9F9F"/>
<path d="M73.8052 61.6994C78.1402 56.6623 84.5624 53.4727 91.7295 53.4727C104.785 53.4727 115.368 64.056 115.368 77.1113C115.368 84.2784 112.179 90.7006 107.141 95.0356L73.8052 61.6994Z" fill="#9F9F9F"/>
<path d="M139.996 91.2669H157.317V86.5502H145.717V64.2094H139.996V91.2669ZM160.999 91.2669H166.628V70.9738H160.999V91.2669ZM163.826 68.5692C165.465 68.5692 166.878 67.3273 166.878 65.7155C166.878 64.1169 165.465 62.875 163.826 62.875C162.202 62.875 160.788 64.1169 160.788 65.7155C160.788 67.3273 162.202 68.5692 163.826 68.5692ZM176.764 79.5349C176.777 76.919 178.336 75.3864 180.609 75.3864C182.868 75.3864 184.229 76.8662 184.216 79.35V91.2669H189.844V78.3459C189.844 73.6161 187.069 70.7095 182.842 70.7095C179.829 70.7095 177.649 72.1892 176.738 74.5541H176.5V70.9738H171.136V91.2669H176.764V79.5349ZM203.581 91.6633C208.614 91.6633 211.983 89.219 212.776 85.4537L207.584 85.1102C207.015 86.6561 205.549 87.4619 203.686 87.4619C200.872 87.4619 199.089 85.599 199.089 82.5736V82.5604H212.908V81.0146C212.908 74.1181 208.733 70.7095 203.369 70.7095C197.397 70.7095 193.527 74.9505 193.527 81.2128C193.527 87.6469 197.345 91.6633 203.581 91.6633ZM199.089 79.0725C199.194 76.7605 200.965 74.9108 203.462 74.9108C205.893 74.9108 207.584 76.6548 207.61 79.0725H199.089ZM222.447 91.6501C225.446 91.6501 227.388 90.3421 228.379 88.4528H228.537V91.2669H233.875V77.5796C233.875 72.7441 229.74 70.7095 225.353 70.7095C220.359 70.7095 217.202 73.0348 216.422 76.734L221.628 77.1568C222.011 75.8092 223.213 74.8183 225.235 74.8183C227.177 74.8183 228.234 75.7696 228.247 77.4739C228.26 78.8083 226.86 79.0064 223.332 79.35C219.316 79.7199 215.709 81.0675 215.709 85.599C215.709 89.6154 218.576 91.6501 222.447 91.6501ZM224.059 87.7658C222.328 87.7658 221.086 86.9599 221.086 85.4141C221.086 83.8288 222.394 83.0491 224.376 82.7718C225.604 82.6 227.612 82.3094 228.286 81.8602V84.0137C228.286 86.1408 226.529 87.7658 224.059 87.7658ZM238.241 91.2669H243.87V79.7859C243.883 77.3021 245.68 75.5978 247.952 75.5978C248.718 75.5978 249.339 75.8092 249.868 76.0735L251.559 71.423C250.819 70.9738 249.868 70.6831 248.784 70.6831C246.499 70.6831 244.649 72.0043 243.909 74.5145H243.698V70.9738H238.241V91.2669Z" fill="#9F9F9F"/>
</g>
</g>
</g>
<g clip-path="url(#clip3_1_8551)">
<g clip-path="url(#clip4_1_8551)">
<g clip-path="url(#clip5_1_8551)">
<path d="M386.375 48.2266H426.095V68.0868H406.235L386.375 48.2266ZM386.375 68.0868H406.235L426.095 87.9469H386.375V68.0868ZM386.375 87.9469H406.235V107.807L386.375 87.9469Z" fill="#9F9F9F"/>
<path d="M448.507 63.8945H464.563V68.9965H454.584V76.0867H464.563V81.076H454.584V90.1543H448.507V63.8945ZM467.864 72.0723H473.604V75.8613C473.903 74.5592 474.517 73.5597 475.442 72.8601C476.39 72.1341 477.444 71.7724 478.593 71.7724C479.194 71.7724 479.694 71.8233 480.093 71.9224V77.2497C479.521 77.1807 478.945 77.1434 478.368 77.1371C476.792 77.1371 475.605 77.6486 474.804 78.6745C474.005 79.6749 473.604 81.1751 473.604 83.1768V90.1543H467.866V72.0723H467.864ZM489.154 90.6422C487.404 90.6422 485.878 90.2288 484.577 89.4037C483.302 88.5787 482.287 87.4074 481.651 86.0272C480.976 84.5779 480.636 82.9378 480.636 81.1133C480.636 79.3124 480.989 77.6859 481.689 76.2366C482.345 74.8364 483.386 73.6524 484.69 72.8228C486.014 71.9978 487.528 71.5844 489.23 71.5844C490.504 71.5844 491.644 71.8606 492.643 72.4103C493.643 72.9619 494.393 73.7124 494.894 74.661V72.0723H500.596V90.1543H494.894V87.6028C494.393 88.5033 493.618 89.2402 492.568 89.8163C491.518 90.3733 490.344 90.6567 489.154 90.6422ZM490.805 85.8773C492.18 85.8773 493.243 85.4275 493.994 84.527C494.744 83.6266 495.119 82.4881 495.119 81.1133C495.119 79.763 494.744 78.6372 493.994 77.7368C493.243 76.8363 492.18 76.3865 490.805 76.3865C489.503 76.3865 488.454 76.8236 487.654 77.6995C486.879 78.5754 486.491 79.7122 486.491 81.1133C486.491 82.5144 486.879 83.6638 487.654 84.5643C488.454 85.4402 489.505 85.8773 490.805 85.8773ZM504.61 72.0723H510.35V74.6983C510.752 73.7715 511.4 73.0209 512.3 72.4476C513.227 71.8742 514.302 71.5844 515.527 71.5844C518.378 71.5844 520.267 72.6965 521.191 74.9236C521.7 73.9141 522.496 73.0791 523.48 72.523C524.532 71.8897 525.741 71.5653 526.968 71.5844C531.245 71.5844 533.383 74.034 533.383 78.9371V90.1543H527.606V79.9875C527.606 78.7635 527.381 77.8631 526.931 77.287C526.48 76.7127 525.805 76.4238 524.905 76.4238C523.93 76.4238 523.179 76.7618 522.654 77.4369C522.129 78.0875 521.866 79.2242 521.866 80.8507V90.1543H516.089V79.9502C516.089 78.7254 515.865 77.8367 515.414 77.287C514.99 76.7127 514.326 76.4238 513.428 76.4238C512.426 76.4238 511.663 76.7618 511.138 77.4369C510.613 78.0875 510.35 79.2242 510.35 80.8507V90.1543H504.612V72.0723H504.61ZM554.945 80.1756C554.945 80.9497 554.894 81.7884 554.793 82.6889H541.44C541.491 83.8646 541.89 84.7633 542.64 85.3903C543.391 86.0145 544.406 86.328 545.679 86.328C547.455 86.328 548.581 85.7892 549.055 84.7142H554.683C554.406 86.4906 553.431 87.9272 551.756 89.0285C550.106 90.1034 548.08 90.6422 545.679 90.6422C542.579 90.6422 540.14 89.8035 538.363 88.128C536.613 86.4516 535.737 84.1145 535.737 81.1133C535.737 79.1624 536.137 77.4742 536.938 76.0485C537.711 74.6247 538.903 73.4725 540.352 72.7474C541.828 71.9732 543.541 71.5844 545.494 71.5844C547.343 71.5844 548.98 71.9469 550.406 72.6729C551.856 73.3989 552.97 74.4111 553.744 75.7114C554.545 77.0135 554.945 78.5009 554.945 80.1756ZM549.278 79.1252C549.254 77.9249 548.916 77.0108 548.265 76.3865C547.616 75.7623 546.677 75.4488 545.452 75.4488C544.227 75.4488 543.252 75.7859 542.526 76.4619C541.826 77.1125 541.464 77.9994 541.437 79.1252H549.278ZM557.476 72.0723H563.216V75.8613C563.516 74.5592 564.129 73.5597 565.054 72.8601C565.952 72.1532 567.062 71.7697 568.205 71.7724C568.805 71.7724 569.306 71.8233 569.705 71.9224V77.2497C569.133 77.1807 568.557 77.1434 567.98 77.1371C566.404 77.1371 565.217 77.6486 564.416 78.6745C563.615 79.6749 563.216 81.1751 563.216 83.1768V90.1543H557.476V72.0723Z" fill="#9F9F9F"/>
</g>
</g>
</g>
<g clip-path="url(#clip6_1_8551)">
<g clip-path="url(#clip7_1_8551)">
<g clip-path="url(#clip8_1_8551)">
<path d="M767.809 94.2209V72.7832H768.191L783.796 94.2209H788.706V62.7394H783.25V84.1231H782.868L767.264 62.7394H762.353V94.2209H767.809ZM804.147 94.7069C811.349 94.7069 815.769 90.063 815.769 82.2871C815.769 74.5652 811.349 69.8673 804.147 69.8673C797 69.8673 792.525 74.5652 792.525 82.2871C792.58 90.063 796.945 94.7069 804.147 94.7069ZM804.147 90.171C800.328 90.171 798.145 87.309 798.145 82.2871C798.145 77.3192 800.328 74.4032 804.147 74.4032C807.966 74.4032 810.149 77.3192 810.149 82.2871C810.149 87.309 807.966 90.171 804.147 90.171ZM820.734 64.5214V70.5153H816.914V74.8352H820.734V87.849C820.734 92.4929 822.916 94.3289 828.481 94.3289C829.518 94.3289 830.555 94.2209 831.373 94.0589V89.847C830.718 89.901 830.282 89.955 829.518 89.955C827.227 89.955 826.19 88.929 826.19 86.553V74.8352H831.373V70.5153H826.19V64.5214H820.734ZM834.647 94.2209H840.103V70.3533H834.647V94.2209ZM837.375 66.4113C839.175 66.4113 840.649 64.9533 840.649 63.1714C840.649 61.3354 839.175 59.8774 837.375 59.8774C835.574 59.8774 834.101 61.3354 834.101 63.1714C834.101 64.9533 835.574 66.4113 837.375 66.4113ZM855.053 94.7069C862.255 94.7069 866.674 90.063 866.674 82.2871C866.674 74.5652 862.255 69.8673 855.053 69.8673C847.905 69.8673 843.431 74.5652 843.431 82.2871C843.431 90.063 847.796 94.7069 855.053 94.7069ZM855.053 90.171C851.234 90.171 849.051 87.309 849.051 82.2871C849.051 77.3192 851.234 74.4032 855.053 74.4032C858.818 74.4032 861.055 77.3192 861.055 82.2871C861 87.309 858.818 90.171 855.053 90.171ZM869.894 94.2209H875.35V80.3431C875.35 76.8332 877.423 74.6192 880.642 74.6192C883.97 74.6192 885.498 76.4552 885.498 80.0731V94.2209H890.954V78.7771C890.954 73.0532 888.008 69.8673 882.661 69.8673C879.06 69.8673 876.659 71.4873 875.513 74.1872H875.131V70.3533H869.839C869.894 70.3533 869.894 94.2209 869.894 94.2209Z" fill="#9F9F9F"/>
<path fill-rule="evenodd" clip-rule="evenodd" d="M710.038 60.7243C711.626 62.0054 712.201 61.9043 715.174 61.702L743.184 60.0164C743.792 60.0164 743.285 59.4095 743.082 59.3421L738.42 56.0045C737.541 55.3302 736.325 54.5211 734.061 54.7234L706.963 56.7125C705.984 56.8136 705.781 57.3193 706.186 57.6901L710.038 60.7243ZM711.727 67.231V96.6288C711.727 98.2133 712.505 98.7865 714.295 98.6853L745.076 96.8985C746.867 96.7974 747.069 95.7186 747.069 94.4375V65.2419C747.069 63.9608 746.562 63.2528 745.481 63.354L713.316 65.2419C712.133 65.343 711.727 65.9499 711.727 67.231ZM742.103 68.8155C742.305 69.692 742.103 70.6023 741.224 70.7034L739.737 71.0068V92.7181C738.453 93.3924 737.271 93.7969 736.257 93.7969C734.669 93.7969 734.264 93.2912 733.081 91.8078L723.384 76.6032V91.3021L726.459 91.9764C726.459 91.9764 726.459 93.7632 723.992 93.7632L717.167 94.1678C716.965 93.7632 717.167 92.7855 717.843 92.5832L719.634 92.0775V72.6588L717.167 72.4565C716.965 71.58 717.471 70.2989 718.857 70.1977L726.189 69.692L736.291 85.0652V71.4788L733.723 71.1754C733.521 70.0966 734.331 69.2875 735.311 69.1863L742.103 68.8155ZM704.7 54.0154L732.912 51.9589C736.359 51.6555 737.271 51.8578 739.433 53.4423L748.421 59.7466C749.907 60.8255 750.414 61.1289 750.414 62.3088V96.9322C750.414 99.0899 749.637 100.371 746.867 100.573L714.126 102.562C712.032 102.664 711.052 102.36 709.971 100.978L703.314 92.381C702.132 90.7964 701.625 89.6165 701.625 88.2342V57.4542C701.625 55.6674 702.436 54.2177 704.7 54.0154Z" fill="#9F9F9F"/>
</g>
</g>
</g>
<g clip-path="url(#clip9_1_8551)">
<g clip-path="url(#clip10_1_8551)">
<g clip-path="url(#clip11_1_8551)">
<mask id="mask0_1_8551" style="mask-type:luminance" maskUnits="userSpaceOnUse" x="1022" y="42" width="185" height="73">
<path d="M1206.88 42H1022.88V115H1206.88V42Z" fill="white"/>
</mask>
<g mask="url(#mask0_1_8551)">
<path d="M1080.55 91.3167L1082.78 86.0981C1085.22 87.9085 1088.41 88.8667 1091.6 88.8667C1093.94 88.8667 1095.43 87.9619 1095.43 86.5775C1095.37 82.7432 1081.34 85.7253 1081.24 76.0853C1081.18 71.186 1085.54 67.4051 1091.71 67.4051C1095.37 67.4051 1099.04 68.3107 1101.65 70.3879L1099.56 75.7179C1097.16 74.1773 1094.21 73.1032 1091.39 73.1032C1089.48 73.1032 1088.2 74.0081 1088.2 75.1805C1088.25 78.9615 1102.39 76.8842 1102.55 86.0981C1102.55 91.1041 1098.3 94.619 1092.24 94.619C1087.78 94.619 1083.68 93.5541 1080.55 91.3167ZM1169.44 84.2083C1168.88 85.2097 1168.06 86.0432 1167.07 86.6232C1166.08 87.2032 1164.95 87.509 1163.8 87.5091C1160.22 87.5091 1157.31 84.6002 1157.31 81.012C1157.31 77.4239 1160.22 74.515 1163.8 74.515C1164.95 74.5151 1166.08 74.8208 1167.07 75.4009C1168.06 75.9809 1168.88 76.8143 1169.44 77.8157L1175.65 74.3702C1173.32 70.2149 1168.89 67.4051 1163.8 67.4051C1156.3 67.4051 1150.22 73.4966 1150.22 81.012C1150.22 88.5267 1156.3 94.619 1163.8 94.619C1168.89 94.619 1173.32 91.8092 1175.65 87.6539L1169.44 84.2083ZM1106.58 94.0862H1114.34V56.0781H1106.58L1106.58 94.0862ZM1179.57 56.0781V94.0862H1187.33V82.699L1196.52 94.0862H1206.44L1194.75 80.5585L1205.59 67.9356H1196.1L1187.33 78.4301V56.0781H1179.57ZM1138.24 67.9371V71.0267C1136.97 68.8961 1133.83 67.4051 1130.54 67.4051C1123.73 67.4051 1118.37 73.4234 1118.37 80.9853C1118.37 88.5473 1123.73 94.619 1130.54 94.619C1133.83 94.619 1136.97 93.1279 1138.24 90.9973V94.0862H1146V67.9371H1138.24ZM1138.24 84.2609C1137.13 86.1247 1134.79 87.5083 1132.18 87.5083C1128.6 87.5083 1125.7 84.6002 1125.7 81.012C1125.7 77.4239 1128.6 74.515 1132.18 74.515C1134.79 74.515 1137.13 75.9527 1138.24 77.8691V84.2609Z" fill="#9F9F9F"/>
<path d="M1039.57 55.2383C1037.05 55.2383 1035.02 57.2812 1035.02 59.8006C1035.02 60.3991 1035.13 60.9919 1035.36 61.5451C1035.59 62.0983 1035.93 62.6011 1036.35 63.0248C1036.77 63.4484 1037.27 63.7847 1037.83 64.0143C1038.38 64.2439 1038.97 64.3624 1039.57 64.363H1044.12V59.8006C1044.12 58.5918 1043.64 57.432 1042.79 56.5764C1041.94 55.7208 1040.78 55.2395 1039.57 55.2383ZM1039.57 67.4045H1027.43C1024.91 67.4045 1022.88 69.4475 1022.88 71.9676C1022.88 74.487 1024.91 76.5299 1027.43 76.5299H1039.57C1042.08 76.5299 1044.12 74.487 1044.12 71.9676C1044.12 69.4475 1042.08 67.4045 1039.57 67.4045Z" fill="#9F9F9F"/>
<path d="M1068.41 71.9676C1068.41 69.4475 1066.37 67.4045 1063.85 67.4045C1061.34 67.4045 1059.3 69.4475 1059.3 71.9676V76.5299H1063.85C1065.06 76.5287 1066.22 76.0474 1067.08 75.1918C1067.93 74.3362 1068.41 73.1765 1068.41 71.9676ZM1056.27 71.9676V59.8006C1056.27 58.5918 1055.79 57.432 1054.93 56.5764C1054.08 55.7208 1052.92 55.2395 1051.71 55.2383C1049.2 55.2383 1047.16 57.2812 1047.16 59.8006V71.9668C1047.16 74.4878 1049.2 76.5307 1051.71 76.5307C1052.92 76.5295 1054.08 76.0482 1054.93 75.1926C1055.79 74.337 1056.27 73.1764 1056.27 71.9676Z" fill="#9F9F9F"/>
<path d="M1051.71 100.862C1052.92 100.861 1054.08 100.379 1054.93 99.5238C1055.79 98.6683 1056.27 97.5085 1056.27 96.2996C1056.27 95.0908 1055.79 93.931 1054.93 93.0754C1054.08 92.2198 1052.92 91.7385 1051.71 91.7373H1047.16V96.2996C1047.16 98.819 1049.2 100.862 1051.71 100.862ZM1051.71 88.6957H1063.85C1066.37 88.6957 1068.41 86.6528 1068.41 84.1326C1068.41 82.9238 1067.93 81.764 1067.08 80.9084C1066.22 80.0529 1065.06 79.5715 1063.85 79.5703H1051.71C1049.2 79.5703 1047.16 81.6133 1047.16 84.1326C1047.16 84.7312 1047.28 85.324 1047.51 85.8772C1047.73 86.4304 1048.07 86.9332 1048.49 87.3568C1048.91 87.7805 1049.42 88.1167 1049.97 88.3463C1050.52 88.5759 1051.11 88.6951 1051.71 88.6957Z" fill="#9F9F9F"/>
<path d="M1022.88 84.1326C1022.87 84.7312 1022.99 85.324 1023.22 85.8772C1023.45 86.4304 1023.78 86.9331 1024.21 87.3568C1024.63 87.7804 1025.13 88.1167 1025.68 88.3463C1026.24 88.5759 1026.83 88.6944 1027.43 88.695C1028.64 88.6937 1029.8 88.2124 1030.65 87.3568C1031.5 86.5013 1031.98 85.3415 1031.98 84.1326V79.5703H1027.43C1024.91 79.5703 1022.88 81.6132 1022.88 84.1326ZM1035.02 84.1326V96.2989C1035.02 98.819 1037.05 100.862 1039.57 100.862C1040.78 100.861 1041.94 100.379 1042.79 99.5238C1043.64 98.6682 1044.12 97.5085 1044.12 96.2996V84.1326C1044.12 83.534 1044.01 82.9412 1043.78 82.3879C1043.55 81.8347 1043.21 81.3319 1042.79 80.9082C1042.37 80.4845 1041.87 80.1483 1041.31 79.9188C1040.76 79.6892 1040.17 79.5708 1039.57 79.5703C1037.05 79.5703 1035.02 81.6132 1035.02 84.1326Z" fill="#9F9F9F"/>
</g>
</g>
</g>
</g>
<g clip-path="url(#clip12_1_8551)">
<g clip-path="url(#clip13_1_8551)">
<g clip-path="url(#clip14_1_8551)">
<path d="M81.8689 222.669C89.4433 222.669 95.6128 228.838 95.6128 236.474C95.6128 244.109 89.4433 250.279 81.8689 250.279C74.2945 250.279 68.125 244.17 68.125 236.474C68.125 228.777 74.2945 222.669 81.8689 222.669ZM189.621 222.363V246.552C189.621 248.385 190.354 248.874 191.759 249.24L191.82 249.546H184.062V246.552C183.146 248.751 181.252 250.095 178.809 250.095C174.655 250.095 171.907 246.308 171.907 240.688C171.907 237.512 172.823 234.824 174.533 232.809C176.182 230.854 178.443 229.815 180.947 229.815C182.169 229.815 183.207 230.06 184.062 230.61V227.311C184.062 226.578 183.879 226.089 183.512 225.723C183.024 225.295 182.23 225.112 181.008 225.234H180.947V224.929L189.621 222.363ZM219.063 229.877V246.552C219.063 248.385 219.796 248.874 221.201 249.24V249.546H213.444V246.491C212.527 248.69 210.512 250.095 208.251 250.095C205.564 250.095 203.853 248.874 203.181 246.491L203.059 245.881C202.937 245.27 202.876 244.659 202.876 244.048V235.13C202.876 233.175 202.448 232.564 200.738 232.442H200.677V232.137L208.435 229.877V243.926C208.435 246.003 209.351 247.163 211.061 247.163C212.1 247.163 212.955 246.614 213.444 245.697V235.13C213.444 233.114 213.077 232.503 211.672 232.381H211.611V232.076L219.063 229.877ZM163.049 229.815C165.126 229.815 167.142 230.548 168.486 231.831C170.013 233.297 170.807 235.435 170.868 238.245V238.306H159.201C158.957 242.338 161.461 245.636 164.76 245.758C167.142 245.942 169.219 244.476 170.379 242.093L170.685 242.215C170.013 246.675 167.386 250.034 162.805 250.034C157.613 250.034 154.681 245.697 154.559 240.261V238.856C154.803 236.474 155.536 234.336 156.819 232.747C157.613 231.77 158.529 231.037 159.629 230.548C160.545 230.06 161.889 229.815 162.988 229.815H163.049ZM243.863 229.877C247.162 229.877 249.178 231.953 249.178 235.496V246.858C249.178 248.202 249.788 248.874 251.316 249.24H251.377V249.546H243.558V235.68C243.558 233.48 242.764 232.381 241.115 232.381C239.771 232.381 239.099 233.358 238.732 234.214C238.793 234.641 238.854 235.069 238.854 235.496V247.041C238.854 248.446 239.282 248.935 240.504 249.24H240.565V249.546H233.296V235.68C233.296 233.48 232.441 232.381 230.852 232.381C229.57 232.381 228.898 233.297 228.592 234.03V247.102C228.592 248.507 229.02 248.996 230.242 249.301H230.303V249.607H223.034V235.069C223.034 233.114 222.545 232.503 220.896 232.381H220.835V232.076L228.592 229.938V233.175C229.386 231.098 231.219 229.877 233.54 229.877C236.167 229.877 237.999 231.159 238.61 233.48C239.404 231.281 241.42 229.877 243.863 229.877ZM132.446 223.585L139.715 240.627L146.984 223.585H154.803L154.742 223.89L154.653 223.91C153.306 224.217 152.604 224.721 152.604 226.395V247.163C152.726 248.507 153.459 248.935 154.742 249.24H154.803V249.546H144.846V249.24H144.907C146.19 248.935 146.923 248.507 147.045 247.163V226.945L137.455 249.484H136.906L127.56 227.555V246.675C127.56 248.385 128.293 248.874 129.698 249.179H129.759V249.484H124.017V249.179H124.078C125.483 248.874 126.216 248.385 126.216 246.675V226.395C126.216 224.684 125.483 224.196 124.078 223.89H124.017V223.585H132.446ZM199.089 229.877V246.552L199.09 246.665C199.12 248.405 199.851 248.881 201.227 249.24L201.288 249.546H193.53V235.13C193.53 233.175 193.103 232.564 191.392 232.442H191.331V232.137L199.089 229.877ZM103.859 223.463C107.585 223.463 110.701 229.327 110.701 236.474C110.701 243.682 107.646 249.484 103.859 249.484C100.072 249.484 97.0177 243.682 97.0177 236.474C97.0177 229.266 100.072 223.463 103.859 223.463ZM114.366 224.807C115.77 224.807 116.809 230.06 116.809 236.474C116.809 242.887 115.709 248.141 114.366 248.141C113.035 248.141 111.944 242.992 111.923 236.666L111.922 236.474C111.922 230.06 113.022 224.807 114.366 224.807ZM181.863 230.915C179.42 230.915 177.893 234.152 177.893 239.161C177.893 241.544 178.32 243.62 179.053 245.025C179.725 246.369 180.703 247.102 181.802 247.102C182.902 247.102 183.696 246.614 184.062 245.697V232.259C183.635 231.404 182.841 230.915 181.863 230.915ZM162.988 230.976C160.789 230.976 159.506 233.603 159.323 237.268V237.329H165.981C166.104 234.458 165.615 232.564 164.699 231.648C164.21 231.22 163.66 230.976 162.988 230.976ZM196.096 222.546C197.867 222.546 199.211 223.89 199.211 225.662C199.211 227.433 197.867 228.777 196.096 228.777C194.324 228.777 192.98 227.433 192.98 225.662C192.98 223.89 194.324 222.546 196.096 222.546Z" fill="#9F9F9F"/>
</g>
</g>
</g>
<g clip-path="url(#clip15_1_8551)">
<g clip-path="url(#clip16_1_8551)">
<g clip-path="url(#clip17_1_8551)">
<mask id="mask1_1_8551" style="mask-type:luminance" maskUnits="userSpaceOnUse" x="386" y="198" width="185" height="78">
<path d="M570.375 198H386.375V275.474H570.375V198Z" fill="white"/>
</mask>
<g mask="url(#mask1_1_8551)">
<path d="M436.879 248.168C431.741 248.168 428.339 244.276 427.39 242.769C428.608 233.231 432.17 230.215 436.879 230.215C441.534 230.215 445.15 233.862 445.15 239.192C445.15 244.522 441.534 248.168 436.879 248.168ZM436.879 224.359C428.5 224.359 423.81 229.707 422.467 235.212C420.945 232.407 419.818 228.655 418.94 225.166H407.357V239.279C407.357 244.399 404.976 248.186 400.321 248.186C395.667 248.186 392.999 244.399 392.999 239.279L393.053 225.166H386.375V239.279C386.375 243.4 387.736 247.134 390.224 249.799C392.784 252.552 396.275 253.989 400.321 253.989C408.378 253.989 413.999 247.941 413.999 239.279V229.794C414.84 232.915 416.846 238.911 420.677 244.171L417.096 264.141H423.882L426.244 249.992C427.014 250.623 427.838 251.184 428.715 251.692C430.989 253.095 433.585 253.884 436.27 253.972C436.27 253.972 436.682 253.989 436.897 253.989C445.204 253.989 451.81 247.695 451.81 239.192C451.81 230.689 445.186 224.359 436.879 224.359Z" fill="#9F9F9F"/>
<path d="M532.818 228.183V225.168H526.266V253.097H532.908V242.157C532.908 235.424 533.534 230.585 542.754 231.216V224.835C538.457 224.519 535.11 225.396 532.818 228.183Z" fill="#9F9F9F"/>
<path d="M486.707 225.172L481.891 244.703L476.753 225.172H468.303L463.147 244.703L458.349 225.172H451.617L458.993 253.119H466.978L472.528 233.272L478.024 253.119H486.009L493.814 225.172H486.707Z" fill="#9F9F9F"/>
<path d="M508.44 248.186C503.714 248.186 500.169 244.539 500.169 239.192C500.169 233.844 503.732 230.215 508.44 230.215C513.095 230.215 516.712 233.862 516.712 239.192C516.712 244.522 513.095 248.186 508.44 248.186ZM508.44 224.359C500.08 224.359 493.527 230.706 493.527 239.192C493.527 247.677 500.08 253.972 508.44 253.972C516.747 253.972 523.353 247.677 523.353 239.192C523.353 230.706 516.765 224.359 508.44 224.359Z" fill="#9F9F9F"/>
<path d="M552.281 239.37H553.821L563.094 253.115H570.596L559.925 237.88C565.1 235.898 568.573 230.726 568.573 225.169H561.948C561.948 231.2 557.097 233.479 552.281 233.479V214.141H545.621V253.115H552.263L552.281 239.37Z" fill="#9F9F9F"/>
</g>
</g>
</g>
</g>
<g clip-path="url(#clip18_1_8551)">
<g clip-path="url(#clip19_1_8551)">
<g clip-path="url(#clip20_1_8551)">
<path fill-rule="evenodd" clip-rule="evenodd" d="M818.261 260.012C807.616 267.83 792.188 272.001 778.904 272.001C760.278 272.001 743.51 265.137 730.824 253.72C729.828 252.823 730.721 251.599 731.917 252.298C745.607 260.235 762.535 265.009 780.02 265.009C791.813 265.009 804.786 262.578 816.714 257.534C818.516 256.771 820.023 258.709 818.261 260.012Z" fill="#9F9F9F"/>
<path fill-rule="evenodd" clip-rule="evenodd" d="M822.686 254.967C821.331 253.236 813.692 254.149 810.264 254.554C809.219 254.681 809.06 253.776 810 253.124C816.084 248.858 826.067 250.09 827.231 251.52C828.395 252.958 826.928 262.928 821.211 267.687C820.334 268.418 819.497 268.028 819.887 267.059C821.171 263.865 824.05 256.707 822.686 254.967Z" fill="#9F9F9F"/>
<path fill-rule="evenodd" clip-rule="evenodd" d="M810.504 223.006V218.859C810.504 218.231 810.983 217.81 811.557 217.81H830.19C830.789 217.81 831.267 218.239 831.267 218.859V222.41C831.259 223.006 830.757 223.784 829.864 225.016L820.208 238.752C823.796 238.664 827.583 239.197 830.836 241.024C831.57 241.437 831.769 242.041 831.825 242.637V247.062C831.825 247.666 831.155 248.373 830.454 248.007C824.721 245.012 817.106 244.686 810.767 248.039C810.121 248.389 809.444 247.689 809.444 247.086V242.883C809.444 242.208 809.452 241.056 810.129 240.031L821.316 224.047H811.581C810.983 224.047 810.504 223.625 810.504 223.006Z" fill="#9F9F9F"/>
<path fill-rule="evenodd" clip-rule="evenodd" d="M742.531 248.882H736.862C736.32 248.842 735.889 248.437 735.849 247.92V218.931C735.849 218.351 736.336 217.89 736.941 217.89H742.228C742.778 217.914 743.217 218.335 743.256 218.859V222.649H743.36C744.739 218.986 747.331 217.278 750.823 217.278C754.371 217.278 756.588 218.986 758.183 222.649C759.554 218.986 762.672 217.278 766.013 217.278C768.389 217.278 770.988 218.256 772.575 220.448C774.369 222.887 774.002 226.43 774.002 229.537L773.994 247.833C773.994 248.413 773.508 248.882 772.902 248.882H767.24C766.674 248.842 766.22 248.389 766.22 247.833V232.468C766.22 231.245 766.331 228.194 766.06 227.034C765.638 225.088 764.37 224.54 762.728 224.54C761.356 224.54 759.921 225.453 759.339 226.915C758.757 228.377 758.813 230.824 758.813 232.468V247.833C758.813 248.413 758.326 248.882 757.72 248.882H752.059C751.485 248.842 751.038 248.389 751.038 247.833L751.031 232.468C751.031 229.235 751.565 224.476 747.538 224.476C743.464 224.476 743.623 229.116 743.623 232.468V247.833C743.623 248.413 743.137 248.882 742.531 248.882Z" fill="#9F9F9F"/>
<path fill-rule="evenodd" clip-rule="evenodd" d="M847.309 217.278C855.721 217.278 860.274 224.476 860.274 233.628C860.274 242.47 855.243 249.485 847.309 249.485C839.049 249.485 834.552 242.288 834.552 233.318C834.552 224.293 839.105 217.278 847.309 217.278ZM847.357 223.197C843.179 223.197 842.916 228.869 842.916 232.405C842.916 235.948 842.86 243.511 847.309 243.511C851.703 243.511 851.91 237.41 851.91 233.692C851.91 231.245 851.806 228.321 851.065 226.001C850.427 223.984 849.159 223.197 847.357 223.197Z" fill="#9F9F9F"/>
<path fill-rule="evenodd" clip-rule="evenodd" d="M871.182 248.882H865.537C864.971 248.842 864.516 248.389 864.516 247.833L864.508 218.835C864.556 218.303 865.026 217.89 865.6 217.89H870.855C871.349 217.914 871.756 218.248 871.868 218.7V223.133H871.971C873.558 219.169 875.782 217.278 879.697 217.278C882.241 217.278 884.721 218.192 886.315 220.695C887.798 223.014 887.798 226.915 887.798 229.719V247.968C887.735 248.477 887.264 248.882 886.706 248.882H881.021C880.503 248.842 880.072 248.461 880.016 247.968V232.222C880.016 229.052 880.383 224.413 876.468 224.413C875.089 224.413 873.821 225.334 873.191 226.732C872.394 228.504 872.29 230.268 872.29 232.222V247.833C872.282 248.413 871.788 248.882 871.182 248.882Z" fill="#9F9F9F"/>
<path fill-rule="evenodd" clip-rule="evenodd" d="M795.65 235.034C795.65 237.235 795.705 239.07 794.589 241.024C793.688 242.613 792.253 243.59 790.666 243.59C788.49 243.59 787.214 241.938 787.214 239.499C787.214 234.685 791.543 233.811 795.65 233.811V235.034ZM801.367 248.802C800.992 249.136 800.45 249.16 800.027 248.937C798.145 247.38 797.802 246.657 796.774 245.171C793.664 248.333 791.456 249.279 787.429 249.279C782.653 249.279 778.945 246.347 778.945 240.476C778.945 235.892 781.433 232.77 784.989 231.244C788.067 229.894 792.365 229.656 795.65 229.282V228.551C795.65 227.209 795.753 225.62 794.956 224.46C794.27 223.419 792.947 222.99 791.775 222.99C789.614 222.99 787.692 224.094 787.222 226.382C787.126 226.891 786.751 227.391 786.233 227.415L780.739 226.827C780.277 226.724 779.759 226.351 779.894 225.644C781.154 219.002 787.182 217 792.572 217C795.331 217 798.935 217.731 801.111 219.812C803.87 222.378 803.607 225.802 803.607 229.528V238.331C803.607 240.977 804.707 242.137 805.744 243.567C806.103 244.075 806.183 244.687 805.72 245.068C804.564 246.029 802.507 247.817 801.375 248.818L801.367 248.802Z" fill="#9F9F9F"/>
<path fill-rule="evenodd" clip-rule="evenodd" d="M721.329 235.034C721.329 237.235 721.385 239.07 720.269 241.024C719.368 242.613 717.941 243.59 716.346 243.59C714.169 243.59 712.901 241.938 712.901 239.499C712.901 234.685 717.231 233.811 721.329 233.811V235.034ZM727.046 248.802C726.671 249.136 726.129 249.159 725.707 248.937C723.825 247.38 723.49 246.657 722.454 245.171C719.344 248.333 717.143 249.279 713.109 249.279C708.341 249.279 704.625 246.347 704.625 240.476C704.625 235.892 707.121 232.77 710.669 231.244C713.747 229.894 718.044 229.656 721.329 229.282V228.551C721.329 227.209 721.433 225.62 720.644 224.46C719.95 223.419 718.626 222.99 717.462 222.99C715.301 222.99 713.372 224.094 712.901 226.382C712.806 226.891 712.431 227.391 711.921 227.415L706.419 226.827C705.957 226.724 705.446 226.351 705.574 225.644C706.842 219.002 712.862 217 718.252 217C721.01 217 724.614 217.731 726.791 219.812C729.55 222.378 729.287 225.802 729.287 229.528V238.331C729.287 240.977 730.387 242.137 731.424 243.567C731.79 244.075 731.87 244.687 731.408 245.068C730.251 246.029 728.194 247.817 727.062 248.818L727.046 248.802Z" fill="#9F9F9F"/>
</g>
</g>
</g>
<g clip-path="url(#clip21_1_8551)">
<g clip-path="url(#clip22_1_8551)">
<g clip-path="url(#clip23_1_8551)">
<path fill-rule="evenodd" clip-rule="evenodd" d="M1201.02 248.333C1201.13 249.593 1202.13 251.197 1203.88 251.197H1204.9C1205.3 251.197 1205.62 250.872 1205.62 250.476V228.011H1205.62C1205.6 227.632 1205.29 227.329 1204.9 227.329H1201.74C1201.35 227.329 1201.04 227.632 1201.02 228.011H1201.02V229.836C1199.08 227.446 1196.02 226.454 1192.95 226.454C1185.98 226.454 1180.34 232.108 1180.34 239.082C1180.34 246.058 1185.98 251.712 1192.95 251.712C1196.02 251.712 1199.36 250.522 1201.02 248.33V248.333ZM1192.97 247.292C1188.53 247.292 1184.94 243.617 1184.94 239.082C1184.94 234.549 1188.53 230.874 1192.97 230.874C1197.4 230.874 1200.99 234.549 1200.99 239.082C1200.99 243.617 1197.4 247.292 1192.97 247.292Z" fill="#9F9F9F"/>
<path fill-rule="evenodd" clip-rule="evenodd" d="M1176.33 237.481C1176.33 230.928 1172.2 226.508 1165.62 226.508C1162.47 226.508 1159.89 228.328 1158.98 229.891C1158.79 228.668 1158.14 227.384 1156.13 227.384H1155.1C1154.71 227.384 1154.38 227.708 1154.38 228.105V248.389V248.393V250.572H1154.39C1154.41 250.949 1154.72 251.253 1155.1 251.253H1158.27C1158.32 251.253 1158.36 251.247 1158.41 251.238C1158.43 251.234 1158.45 251.226 1158.47 251.22C1158.49 251.213 1158.52 251.207 1158.54 251.198C1158.57 251.186 1158.6 251.171 1158.62 251.156C1158.63 251.148 1158.65 251.143 1158.66 251.135C1158.69 251.114 1158.72 251.09 1158.75 251.065C1158.75 251.06 1158.76 251.057 1158.76 251.053C1158.79 251.022 1158.82 250.988 1158.85 250.954C1158.93 250.845 1158.98 250.713 1158.98 250.572H1158.99V237.301C1158.99 233.782 1161.84 230.928 1165.36 230.928C1168.87 230.928 1171.72 233.782 1171.72 237.301L1171.73 248.393V248.389C1171.73 248.399 1171.73 248.409 1171.73 248.42V250.572H1171.73C1171.75 250.949 1172.07 251.253 1172.45 251.253H1175.62C1175.66 251.253 1175.71 251.247 1175.76 251.238C1175.78 251.235 1175.79 251.227 1175.81 251.222C1175.84 251.215 1175.86 251.208 1175.89 251.198C1175.91 251.187 1175.94 251.172 1175.96 251.159C1175.98 251.15 1175.99 251.144 1176.01 251.135C1176.04 251.115 1176.06 251.092 1176.09 251.069C1176.1 251.063 1176.1 251.058 1176.11 251.052C1176.14 251.023 1176.17 250.992 1176.19 250.959C1176.19 250.957 1176.2 250.955 1176.2 250.952C1176.28 250.844 1176.32 250.714 1176.33 250.573V250.572H1176.34L1176.33 237.481Z" fill="#9F9F9F"/>
<path fill-rule="evenodd" clip-rule="evenodd" d="M1143.37 248.333C1143.48 249.593 1144.49 251.197 1146.23 251.197H1147.26C1147.65 251.197 1147.98 250.872 1147.98 250.476V228.011H1147.97C1147.95 227.632 1147.64 227.329 1147.26 227.329H1144.09C1143.71 227.329 1143.39 227.632 1143.37 228.011H1143.37V229.836C1141.43 227.446 1138.37 226.454 1135.31 226.454C1128.34 226.454 1122.69 232.108 1122.69 239.083C1122.69 246.058 1128.34 251.712 1135.31 251.712C1138.37 251.712 1141.71 250.522 1143.37 248.33V248.333ZM1135.32 247.292C1130.89 247.292 1127.29 243.617 1127.29 239.083C1127.29 234.549 1130.89 230.874 1135.32 230.874C1139.75 230.874 1143.34 234.549 1143.34 239.083C1143.34 243.617 1139.75 247.292 1135.32 247.292Z" fill="#9F9F9F"/>
<path fill-rule="evenodd" clip-rule="evenodd" d="M1103.97 245.116C1106.08 246.581 1108.39 247.292 1110.61 247.292C1112.72 247.292 1114.9 246.197 1114.9 244.29C1114.9 241.744 1110.14 241.348 1107.16 240.332C1104.17 239.315 1101.59 237.214 1101.59 233.811C1101.59 228.604 1106.23 226.453 1110.56 226.453C1113.3 226.453 1116.13 227.358 1117.96 228.654C1118.59 229.133 1118.21 229.683 1118.21 229.683L1116.46 232.185C1116.26 232.467 1115.92 232.71 1115.42 232.405C1114.93 232.1 1113.2 230.873 1110.56 230.873C1107.92 230.873 1106.33 232.094 1106.33 233.606C1106.33 235.419 1108.39 235.99 1110.81 236.608C1115.03 237.746 1119.63 239.114 1119.63 244.29C1119.63 248.878 1115.35 251.713 1110.61 251.713C1107.02 251.713 1103.96 250.688 1101.39 248.805C1100.86 248.27 1101.23 247.773 1101.23 247.773L1102.97 245.284C1103.33 244.818 1103.78 244.98 1103.97 245.116Z" fill="#9F9F9F"/>
<path fill-rule="evenodd" clip-rule="evenodd" d="M1091.8 248.333C1091.91 249.593 1092.92 251.197 1094.67 251.197H1095.69C1096.08 251.197 1096.41 250.872 1096.41 250.476V228.011H1096.4C1096.38 227.632 1096.07 227.329 1095.69 227.329H1092.52C1092.14 227.329 1091.83 227.632 1091.81 228.011H1091.8V229.836C1089.86 227.446 1086.81 226.454 1083.74 226.454C1076.77 226.454 1071.12 232.108 1071.12 239.083C1071.12 246.058 1076.77 251.712 1083.74 251.712C1086.81 251.712 1090.15 250.522 1091.8 248.33L1091.8 248.333ZM1083.75 247.292C1079.32 247.292 1075.73 243.617 1075.73 239.083C1075.73 234.549 1079.32 230.874 1083.75 230.874C1088.18 230.874 1091.78 234.549 1091.78 239.083C1091.78 243.617 1088.18 247.292 1083.75 247.292Z" fill="#9F9F9F"/>
<path fill-rule="evenodd" clip-rule="evenodd" d="M1053.43 239.943C1048.74 239.943 1044.94 243.745 1044.94 248.435C1044.94 253.126 1048.74 256.928 1053.43 256.928C1058.12 256.928 1061.92 253.126 1061.92 248.435C1061.92 243.745 1058.12 239.943 1053.43 239.943ZM1031.37 239.944C1026.68 239.944 1022.88 243.745 1022.88 248.435C1022.88 253.126 1026.68 256.928 1031.37 256.928C1036.06 256.928 1039.86 253.126 1039.86 248.435C1039.86 243.745 1036.06 239.944 1031.37 239.944ZM1050.89 229.328C1050.89 234.018 1047.09 237.821 1042.4 237.821C1037.71 237.821 1033.91 234.018 1033.91 229.328C1033.91 224.638 1037.71 220.836 1042.4 220.836C1047.09 220.836 1050.89 224.638 1050.89 229.328Z" fill="#9F9F9F"/>
</g>
</g>
</g>
<defs>
<clipPath id="clip0_1_8551">
<rect width="184" height="60" fill="white" transform="translate(68.125 48.5)"/>
</clipPath>
<clipPath id="clip1_1_8551">
<rect width="184" height="60" fill="white" transform="translate(68.125 48.5)"/>
</clipPath>
<clipPath id="clip2_1_8551">
<rect width="184" height="60" fill="white" transform="translate(68.125 48.5)"/>
</clipPath>
<clipPath id="clip3_1_8551">
<rect width="184" height="66" fill="white" transform="translate(386.375 45.5)"/>
</clipPath>
<clipPath id="clip4_1_8551">
<rect width="184" height="66" fill="white" transform="translate(386.375 45.5)"/>
</clipPath>
<clipPath id="clip5_1_8551">
<rect width="184" height="66" fill="white" transform="translate(386.375 45.5)"/>
</clipPath>
<clipPath id="clip6_1_8551">
<rect width="190" height="71" fill="white" transform="translate(701.625 43)"/>
</clipPath>
<clipPath id="clip7_1_8551">
<rect width="190" height="71" fill="white" transform="translate(701.625 43)"/>
</clipPath>
<clipPath id="clip8_1_8551">
<rect width="190" height="71" fill="white" transform="translate(701.625 43)"/>
</clipPath>
<clipPath id="clip9_1_8551">
<rect width="184" height="73" fill="white" transform="translate(1022.88 42)"/>
</clipPath>
<clipPath id="clip10_1_8551">
<rect width="184" height="73" fill="white" transform="translate(1022.88 42)"/>
</clipPath>
<clipPath id="clip11_1_8551">
<rect width="184" height="73" fill="white" transform="translate(1022.88 42)"/>
</clipPath>
<clipPath id="clip12_1_8551">
<rect width="184" height="61" fill="white" transform="translate(68.125 206.5)"/>
</clipPath>
<clipPath id="clip13_1_8551">
<rect width="184" height="61" fill="white" transform="translate(68.125 206.5)"/>
</clipPath>
<clipPath id="clip14_1_8551">
<rect width="184" height="61" fill="white" transform="translate(68.125 206.5)"/>
</clipPath>
<clipPath id="clip15_1_8551">
<rect width="184" height="78" fill="white" transform="translate(386.375 198)"/>
</clipPath>
<clipPath id="clip16_1_8551">
<rect width="184" height="78" fill="white" transform="translate(386.375 198)"/>
</clipPath>
<clipPath id="clip17_1_8551">
<rect width="184" height="78" fill="white" transform="translate(386.375 198)"/>
</clipPath>
<clipPath id="clip18_1_8551">
<rect width="184" height="80" fill="white" transform="translate(704.625 197)"/>
</clipPath>
<clipPath id="clip19_1_8551">
<rect width="184" height="80" fill="white" transform="translate(704.625 197)"/>
</clipPath>
<clipPath id="clip20_1_8551">
<rect width="184" height="80" fill="white" transform="translate(704.625 197)"/>
</clipPath>
<clipPath id="clip21_1_8551">
<rect width="184" height="70" fill="white" transform="translate(1022.88 202)"/>
</clipPath>
<clipPath id="clip22_1_8551">
<rect width="184" height="70" fill="white" transform="translate(1022.88 202)"/>
</clipPath>
<clipPath id="clip23_1_8551">
<rect width="184" height="70" fill="white" transform="translate(1022.88 202)"/>
</clipPath>
</defs>
</svg>
