<svg width="55" height="55" viewBox="0 0 55 55" fill="none" xmlns="http://www.w3.org/2000/svg">
<rect width="55" height="55" rx="27.5" fill="#FF494A"/>
<path d="M27.5 16.5938C33.5156 16.5938 38.1562 21.0195 38.1562 26.9492C38.1562 34.4688 30.9805 38.6797 24.4062 36.875C24.0195 36.7891 23.9766 36.875 21.7422 37.8633C21.6133 37.9062 21.4844 37.9062 21.3984 37.9062C20.9258 37.9062 20.5391 37.5625 20.5391 37.0898C20.4531 35.1133 20.5391 34.9414 20.1953 34.5977C18.0898 32.75 16.8438 30.043 16.8438 26.9492C16.8438 21.0195 21.4844 16.5938 27.5 16.5938ZM33.9023 24.5859C34.2031 24.1133 33.6445 23.5547 33.1719 23.8984L29.8203 26.4336C29.6914 26.5195 29.5625 26.5625 29.4336 26.5625C29.2617 26.5625 29.1328 26.5195 29.0469 26.4336L26.5547 24.5859C26.2969 24.3711 25.9531 24.2422 25.5664 24.2422C25.0078 24.2422 24.4922 24.543 24.2344 25.0156L21.0977 29.957C20.7969 30.4297 21.3555 30.9883 21.8281 30.6445L25.1797 28.1094C25.3086 28.0234 25.4375 27.9805 25.5664 27.9805C25.7383 27.9805 25.8672 28.0234 25.9531 28.1094L28.4453 29.957C28.7461 30.1719 29.0469 30.3008 29.4336 30.3008C29.9922 30.3008 30.5078 30 30.7656 29.5273L33.9023 24.5859Z" fill="white"/>
</svg>
