<svg width="319" height="162" viewBox="0 0 319 162" fill="none" xmlns="http://www.w3.org/2000/svg">
<g clip-path="url(#clip0_1_8590)">
<g clip-path="url(#clip1_1_8590)">
<g clip-path="url(#clip2_1_8590)">
<path d="M79.8689 65.6687C87.4433 65.6687 93.6128 71.8382 93.6128 79.4737C93.6128 87.1091 87.4433 93.2786 79.8689 93.2786C72.2945 93.2786 66.125 87.1702 66.125 79.4737C66.125 71.7771 72.2945 65.6687 79.8689 65.6687ZM187.621 65.3633V89.5525C187.621 91.385 188.354 91.8737 189.759 92.2402L189.82 92.5456H182.062V89.5525C181.146 91.7515 179.252 93.0954 176.809 93.0954C172.655 93.0954 169.907 89.3082 169.907 83.6884C169.907 80.5121 170.823 77.8244 172.533 75.8086C174.182 73.8539 176.443 72.8155 178.947 72.8155C180.169 72.8155 181.207 73.0599 182.062 73.6096V70.3111C182.062 69.5781 181.879 69.0894 181.512 68.7229C181.024 68.2953 180.23 68.1121 179.008 68.2342H178.947V67.9288L187.621 65.3633ZM217.063 72.8766V89.5525C217.063 91.385 217.796 91.8737 219.201 92.2402V92.5456H211.444V89.4914C210.527 91.6904 208.512 93.0954 206.251 93.0954C203.564 93.0954 201.853 91.8737 201.181 89.4914L201.059 88.8806C200.937 88.2697 200.876 87.6589 200.876 87.0481V78.1298C200.876 76.1751 200.448 75.5643 198.738 75.4421H198.677V75.1367L206.435 72.8766V86.9259C206.435 89.0027 207.351 90.1633 209.061 90.1633C210.1 90.1633 210.955 89.6136 211.444 88.6973V78.1298C211.444 76.114 211.077 75.5032 209.672 75.381H209.611V75.0756L217.063 72.8766ZM161.049 72.8155C163.126 72.8155 165.142 73.5485 166.486 74.8313C168.013 76.2973 168.807 78.4352 168.868 81.2451V81.3062H157.201C156.957 85.3377 159.461 88.6362 162.76 88.7584C165.142 88.9417 167.219 87.4756 168.379 85.0934L168.685 85.2155C168.013 89.6747 165.386 93.0343 160.805 93.0343C155.613 93.0343 152.681 88.6973 152.559 83.2609V81.8559C152.803 79.4737 153.536 77.3357 154.819 75.7475C155.613 74.7702 156.529 74.0372 157.629 73.5485C158.545 73.0599 159.889 72.8155 160.988 72.8155H161.049ZM241.863 72.8766C245.162 72.8766 247.178 74.9535 247.178 78.4963V89.8579C247.178 91.2018 247.788 91.8737 249.316 92.2402H249.377V92.5456H241.558V78.6796C241.558 76.4805 240.764 75.381 239.115 75.381C237.771 75.381 237.099 76.3584 236.732 77.2136C236.793 77.6411 236.854 78.0687 236.854 78.4963V90.0412C236.854 91.4461 237.282 91.9348 238.504 92.2402H238.565V92.5456H231.296V78.6796C231.296 76.4805 230.441 75.381 228.852 75.381C227.57 75.381 226.898 76.2973 226.592 77.0303V90.1023C226.592 91.5072 227.02 91.9959 228.242 92.3013H228.303V92.6067H221.034V78.0687C221.034 76.114 220.545 75.5032 218.896 75.381H218.835V75.0756L226.592 72.9377V76.1751C227.386 74.0983 229.219 72.8766 231.54 72.8766C234.167 72.8766 235.999 74.1594 236.61 76.4805C237.404 74.2815 239.42 72.8766 241.863 72.8766ZM130.446 66.585L137.715 83.6274L144.984 66.585H152.803L152.742 66.8904L152.653 66.9101C151.306 67.2171 150.604 67.7209 150.604 69.3948V90.1633C150.726 91.5072 151.459 91.9348 152.742 92.2402H152.803V92.5456H142.846V92.2402H142.907C144.19 91.9348 144.923 91.5072 145.045 90.1633V69.9446L135.455 92.4845H134.906L125.56 70.5554V89.6747C125.56 91.385 126.293 91.8737 127.698 92.1791H127.759V92.4845H122.017V92.1791H122.078C123.483 91.8737 124.216 91.385 124.216 89.6747V69.3948C124.216 67.6845 123.483 67.1958 122.078 66.8904H122.017V66.585H130.446ZM197.089 72.8766V89.5525L197.09 89.6653C197.12 91.4053 197.851 91.8813 199.227 92.2402L199.288 92.5456H191.53V78.1298C191.53 76.1751 191.103 75.5643 189.392 75.4421H189.331V75.1367L197.089 72.8766ZM101.859 66.4628C105.585 66.4628 108.701 72.3268 108.701 79.4737C108.701 86.6816 105.646 92.4845 101.859 92.4845C98.0719 92.4845 95.0177 86.6816 95.0177 79.4737C95.0177 72.2658 98.0719 66.4628 101.859 66.4628ZM112.366 67.8066C113.77 67.8066 114.809 73.0598 114.809 79.4737C114.809 85.8875 113.709 91.1407 112.366 91.1407C111.035 91.1407 109.944 85.992 109.923 79.6657L109.922 79.4737C109.922 73.0598 111.022 67.8066 112.366 67.8066ZM179.863 73.915C177.42 73.915 175.893 77.1525 175.893 82.1613C175.893 84.5436 176.32 86.6205 177.053 88.0254C177.725 89.3692 178.703 90.1023 179.802 90.1023C180.902 90.1023 181.696 89.6136 182.062 88.6973V75.2589C181.635 74.4037 180.841 73.915 179.863 73.915ZM160.988 73.9761C158.789 73.9761 157.506 76.6027 157.323 80.2677V80.3288H163.981C164.104 77.4579 163.615 75.5643 162.699 74.648C162.21 74.2204 161.66 73.9761 160.988 73.9761ZM194.096 65.5465C195.867 65.5465 197.211 66.8904 197.211 68.6618C197.211 70.4332 195.867 71.7771 194.096 71.7771C192.324 71.7771 190.98 70.4332 190.98 68.6618C190.98 66.8904 192.324 65.5465 194.096 65.5465Z" fill="#9F9F9F"/>
</g>
</g>
</g>
<defs>
<clipPath id="clip0_1_8590">
<rect width="184" height="61" fill="white" transform="translate(66.125 49.5)"/>
</clipPath>
<clipPath id="clip1_1_8590">
<rect width="184" height="61" fill="white" transform="translate(66.125 49.5)"/>
</clipPath>
<clipPath id="clip2_1_8590">
<rect width="184" height="61" fill="white" transform="translate(66.125 49.5)"/>
</clipPath>
</defs>
</svg>
