<svg width="45" height="45" viewBox="0 0 45 45" fill="none" xmlns="http://www.w3.org/2000/svg">
<rect x="0.5" y="0.5" width="44" height="44" rx="4.5" stroke="#D9DDE0"/>
<path d="M29.8125 15.75C30.2812 15.7734 30.6797 15.9375 31.0078 16.2422C31.3125 16.5703 31.4766 16.9688 31.5 17.4375C31.4766 18 31.2539 18.4453 30.832 18.7734L23.168 24.5391C22.7227 24.8203 22.2773 24.8203 21.832 24.5391L14.168 18.7734C13.7461 18.4453 13.5234 18 13.5 17.4375C13.5234 16.9688 13.6875 16.5703 13.9922 16.2422C14.3203 15.9375 14.7188 15.7734 15.1875 15.75H29.8125ZM21.1641 25.418C21.5625 25.7227 22.0078 25.875 22.5 25.875C22.9922 25.875 23.4375 25.7227 23.8359 25.418L31.5 19.6875V27C31.4766 27.6328 31.2539 28.1602 30.832 28.582C30.4102 29.0039 29.8828 29.2266 29.25 29.25H15.75C15.1172 29.2266 14.5898 29.0039 14.168 28.582C13.7461 28.1602 13.5234 27.6328 13.5 27V19.6875L21.1641 25.418Z" fill="#141414"/>
</svg>
