<svg width="319" height="155" viewBox="0 0 319 155" fill="none" xmlns="http://www.w3.org/2000/svg">
<g clip-path="url(#clip0_1_8569)">
<g clip-path="url(#clip1_1_8569)">
<g clip-path="url(#clip2_1_8569)">
<path d="M129.309 92.2209V70.7832H129.691L145.296 92.2209H150.206V60.7394H144.75V82.1231H144.368L128.764 60.7394H123.853V92.2209H129.309ZM165.647 92.7069C172.849 92.7069 177.269 88.063 177.269 80.2871C177.269 72.5652 172.849 67.8673 165.647 67.8673C158.5 67.8673 154.025 72.5652 154.025 80.2871C154.08 88.063 158.445 92.7069 165.647 92.7069ZM165.647 88.171C161.828 88.171 159.645 85.309 159.645 80.2871C159.645 75.3192 161.828 72.4032 165.647 72.4032C169.466 72.4032 171.649 75.3192 171.649 80.2871C171.649 85.309 169.466 88.171 165.647 88.171ZM182.234 62.5214V68.5153H178.414V72.8352H182.234V85.849C182.234 90.4929 184.416 92.3289 189.981 92.3289C191.018 92.3289 192.055 92.2209 192.873 92.0589V87.847C192.218 87.901 191.782 87.955 191.018 87.955C188.727 87.955 187.69 86.929 187.69 84.553V72.8352H192.873V68.5153H187.69V62.5214H182.234ZM196.147 92.2209H201.603V68.3533H196.147V92.2209ZM198.875 64.4113C200.675 64.4113 202.149 62.9533 202.149 61.1714C202.149 59.3354 200.675 57.8774 198.875 57.8774C197.074 57.8774 195.601 59.3354 195.601 61.1714C195.601 62.9533 197.074 64.4113 198.875 64.4113ZM216.553 92.7069C223.755 92.7069 228.174 88.063 228.174 80.2871C228.174 72.5652 223.755 67.8673 216.553 67.8673C209.405 67.8673 204.931 72.5652 204.931 80.2871C204.931 88.063 209.296 92.7069 216.553 92.7069ZM216.553 88.171C212.734 88.171 210.551 85.309 210.551 80.2871C210.551 75.3192 212.734 72.4032 216.553 72.4032C220.318 72.4032 222.555 75.3192 222.555 80.2871C222.5 85.309 220.318 88.171 216.553 88.171ZM231.394 92.2209H236.85V78.3431C236.85 74.8332 238.923 72.6192 242.142 72.6192C245.47 72.6192 246.998 74.4552 246.998 78.0731V92.2209H252.454V76.7771C252.454 71.0532 249.508 67.8673 244.161 67.8673C240.56 67.8673 238.159 69.4873 237.013 72.1872H236.631V68.3533H231.339C231.394 68.3533 231.394 92.2209 231.394 92.2209Z" fill="#9F9F9F"/>
<path fill-rule="evenodd" clip-rule="evenodd" d="M71.5381 58.7243C73.1261 60.0054 73.7005 59.9043 76.6738 59.702L104.684 58.0164C105.292 58.0164 104.785 57.4095 104.582 57.3421L99.9197 54.0045C99.0412 53.3302 97.8248 52.5211 95.5611 52.7234L68.4634 54.7125C67.4836 54.8136 67.2809 55.3193 67.6863 55.6901L71.5381 58.7243ZM73.2275 65.231V94.6288C73.2275 96.2133 74.0046 96.7865 75.7953 96.6853L106.576 94.8985C108.367 94.7974 108.569 93.7186 108.569 92.4375V63.2419C108.569 61.9608 108.062 61.2528 106.981 61.354L74.8155 63.2419C73.6329 63.343 73.2275 63.9499 73.2275 65.231ZM103.603 66.8155C103.805 67.692 103.603 68.6023 102.724 68.7034L101.237 69.0068V90.7181C99.9534 91.3924 98.7709 91.7969 97.7573 91.7969C96.1692 91.7969 95.7638 91.2912 94.5812 89.8078L84.8842 74.6032V89.3021L87.9589 89.9764C87.9589 89.9764 87.9589 91.7632 85.4924 91.7632L78.6673 92.1678C78.4646 91.7632 78.6673 90.7855 79.343 90.5832L81.1338 90.0775V70.6588L78.6673 70.4565C78.4646 69.58 78.9714 68.2989 80.3567 68.1977L87.6886 67.692L97.791 83.0652V69.4788L95.2232 69.1754C95.0205 68.0966 95.8314 67.2875 96.8112 67.1863L103.603 66.8155ZM66.1997 52.0154L94.4123 49.9589C97.8586 49.6555 98.7709 49.8578 100.933 51.4423L109.921 57.7466C111.407 58.8255 111.914 59.1289 111.914 60.3088V94.9322C111.914 97.0899 111.137 98.371 108.367 98.5732L75.6264 100.562C73.5316 100.664 72.5517 100.36 71.4705 98.9778L64.8144 90.381C63.6318 88.7964 63.125 87.6165 63.125 86.2342V55.4542C63.125 53.6674 63.9359 52.2177 66.1997 52.0154Z" fill="#9F9F9F"/>
</g>
</g>
</g>
<defs>
<clipPath id="clip0_1_8569">
<rect width="190" height="71" fill="white" transform="translate(63.125 41)"/>
</clipPath>
<clipPath id="clip1_1_8569">
<rect width="190" height="71" fill="white" transform="translate(63.125 41)"/>
</clipPath>
<clipPath id="clip2_1_8569">
<rect width="190" height="71" fill="white" transform="translate(63.125 41)"/>
</clipPath>
</defs>
</svg>
