<svg width="45" height="45" viewBox="0 0 45 45" fill="none" xmlns="http://www.w3.org/2000/svg">
<rect x="0.5" y="0.5" width="44" height="44" rx="4.5" stroke="#D9DDE0"/>
<path d="M31.4648 27.1055L30.6562 30.6562C30.4922 31.1953 30.1289 31.4766 29.5664 31.5C26.5898 31.4766 23.8945 30.7383 21.4805 29.2852C19.0664 27.8555 17.1445 25.9336 15.7148 23.5195C14.2617 21.1055 13.5234 18.4102 13.5 15.4336C13.5234 14.8711 13.8047 14.5078 14.3438 14.3438L17.8945 13.5352C18.457 13.4414 18.8789 13.6523 19.1602 14.168L20.7773 17.9648C20.9648 18.4805 20.8594 18.9141 20.4609 19.2656L18.5977 20.7773C19.1836 21.9961 19.957 23.0859 20.918 24.0469C21.8789 25.0078 22.9688 25.793 24.1875 26.4023L25.7344 24.5039C26.0859 24.1055 26.5195 24 27.0352 24.1875L30.832 25.8047C31.3242 26.1094 31.5352 26.543 31.4648 27.1055Z" fill="#141414"/>
</svg>
