<svg width="319" height="155" viewBox="0 0 319 155" fill="none" xmlns="http://www.w3.org/2000/svg">
<g clip-path="url(#clip0_1_8576)">
<g clip-path="url(#clip1_1_8576)">
<g clip-path="url(#clip2_1_8576)">
<mask id="mask0_1_8576" style="mask-type:luminance" maskUnits="userSpaceOnUse" x="66" y="40" width="185" height="73">
<path d="M250.125 40H66.125V113H250.125V40Z" fill="white"/>
</mask>
<g mask="url(#mask0_1_8576)">
<path d="M123.798 89.3167L126.03 84.0981C128.474 85.9085 131.663 86.8667 134.852 86.8667C137.19 86.8667 138.678 85.9619 138.678 84.5775C138.625 80.7432 124.595 83.7253 124.488 74.0853C124.435 69.186 128.793 65.4051 134.959 65.4051C138.625 65.4051 142.293 66.3107 144.896 68.3879L142.81 73.7179C140.414 72.1773 137.456 71.1032 134.639 71.1032C132.726 71.1032 131.45 72.0081 131.45 73.1805C131.504 76.9615 145.641 74.8842 145.8 84.0981C145.8 89.1041 141.548 92.619 135.489 92.619C131.026 92.619 126.934 91.5541 123.798 89.3167ZM212.693 82.2083C212.129 83.2097 211.309 84.0432 210.317 84.6232C209.326 85.2032 208.197 85.509 207.048 85.5091C203.467 85.5091 200.565 82.6002 200.565 79.012C200.565 75.4239 203.467 72.515 207.048 72.515C208.197 72.5151 209.326 72.8208 210.317 73.4009C211.309 73.9809 212.129 74.8143 212.693 75.8157L218.899 72.3702C216.574 68.2149 212.14 65.4051 207.048 65.4051C199.549 65.4051 193.47 71.4966 193.47 79.012C193.47 86.5267 199.549 92.619 207.048 92.619C212.14 92.619 216.574 89.8092 218.899 85.6539L212.693 82.2083ZM149.828 92.0862H157.587V54.0781H149.829L149.828 92.0862ZM222.818 54.0781V92.0862H230.577V80.699L239.771 92.0862H249.689L237.997 78.5585L248.839 65.9356H239.346L230.577 76.4301V54.0781H222.818ZM181.492 65.9371V69.0267C180.217 66.8961 177.081 65.4051 173.786 65.4051C166.984 65.4051 161.616 71.4234 161.616 78.9853C161.616 86.5473 166.984 92.619 173.786 92.619C177.081 92.619 180.217 91.1279 181.492 88.9973V92.0862H189.252V65.9371H181.492ZM181.492 82.2609C180.376 84.1247 178.038 85.5083 175.434 85.5083C171.853 85.5083 168.95 82.6002 168.95 79.012C168.95 75.4239 171.853 72.515 175.434 72.515C178.038 72.515 180.376 73.9527 181.492 75.8691V82.2609Z" fill="#9F9F9F"/>
<path d="M82.8189 53.2383C80.3044 53.2383 78.2662 55.2812 78.2662 57.8006C78.2656 58.3991 78.3829 58.9919 78.6114 59.5451C78.8398 60.0983 79.175 60.6011 79.5978 61.0248C80.0205 61.4484 80.5226 61.7847 81.0753 62.0143C81.6279 62.2439 82.2204 62.3624 82.8189 62.363H87.3723V57.8006C87.3733 56.5918 86.8942 55.432 86.0403 54.5764C85.1864 53.7208 84.0276 53.2395 82.8189 53.2383ZM82.8189 65.4045H70.6777C68.1632 65.4045 66.125 67.4475 66.125 69.9676C66.125 72.487 68.1632 74.5299 70.6777 74.5299H82.8197C85.3334 74.5299 87.3723 72.487 87.3723 69.9676C87.3723 67.4475 85.3334 65.4045 82.8189 65.4045Z" fill="#9F9F9F"/>
<path d="M111.657 69.9676C111.657 67.4475 109.619 65.4045 107.104 65.4045C104.589 65.4045 102.551 67.4475 102.551 69.9676V74.5299H107.104C108.313 74.5287 109.471 74.0474 110.325 73.1918C111.179 72.3362 111.658 71.1765 111.657 69.9676ZM99.5163 69.9676V57.8006C99.5173 56.5918 99.0381 55.432 98.1842 54.5764C97.3303 53.7208 96.1716 53.2395 94.9628 53.2383C92.4483 53.2383 90.4102 55.2812 90.4102 57.8006V69.9668C90.4102 72.4878 92.4483 74.5307 94.9628 74.5307C96.1716 74.5295 97.3303 74.0482 98.1842 73.1926C99.0381 72.337 99.5173 71.1764 99.5163 69.9676Z" fill="#9F9F9F"/>
<path d="M94.9628 98.862C96.1716 98.8608 97.3303 98.3794 98.1842 97.5238C99.0381 96.6683 99.5173 95.5085 99.5163 94.2996C99.5173 93.0908 99.0381 91.931 98.1842 91.0754C97.3303 90.2198 96.1716 89.7385 94.9628 89.7373H90.4102V94.2996C90.4102 96.819 92.4483 98.862 94.9628 98.862ZM94.9628 86.6957H107.105C109.619 86.6957 111.657 84.6528 111.657 82.1326C111.658 80.9238 111.179 79.764 110.325 78.9084C109.471 78.0529 108.313 77.5715 107.104 77.5703H94.9628C92.4483 77.5703 90.4102 79.6133 90.4102 82.1326C90.4096 82.7312 90.5268 83.324 90.7553 83.8772C90.9838 84.4304 91.319 84.9332 91.7417 85.3568C92.1645 85.7805 92.6665 86.1167 93.2192 86.3463C93.7719 86.5759 94.3644 86.6951 94.9628 86.6957Z" fill="#9F9F9F"/>
<path d="M66.125 82.1326C66.1244 82.7312 66.2417 83.324 66.4702 83.8772C66.6986 84.4304 67.0338 84.9331 67.4566 85.3568C67.8793 85.7804 68.3814 86.1167 68.934 86.3463C69.4867 86.5759 70.0792 86.6944 70.6777 86.695C71.8864 86.6937 73.0451 86.2124 73.8991 85.3568C74.753 84.5013 75.2321 83.3415 75.2311 82.1326V77.5703H70.6777C68.1632 77.5703 66.125 79.6132 66.125 82.1326ZM78.2662 82.1326V94.2989C78.2662 96.819 80.3044 98.8619 82.8189 98.8619C84.0276 98.8607 85.1864 98.3794 86.0403 97.5238C86.8942 96.6682 87.3733 95.5085 87.3723 94.2996V82.1326C87.3729 81.534 87.2556 80.9412 87.0271 80.3879C86.7986 79.8347 86.4633 79.3319 86.0405 78.9082C85.6177 78.4845 85.1155 78.1483 84.5628 77.9188C84.01 77.6892 83.4174 77.5708 82.8189 77.5703C80.3044 77.5703 78.2662 79.6132 78.2662 82.1326Z" fill="#9F9F9F"/>
</g>
</g>
</g>
</g>
<defs>
<clipPath id="clip0_1_8576">
<rect width="184" height="73" fill="white" transform="translate(66.125 40)"/>
</clipPath>
<clipPath id="clip1_1_8576">
<rect width="184" height="73" fill="white" transform="translate(66.125 40)"/>
</clipPath>
<clipPath id="clip2_1_8576">
<rect width="184" height="73" fill="white" transform="translate(66.125 40)"/>
</clipPath>
</defs>
</svg>
