<svg width="319" height="162" viewBox="0 0 319 162" fill="none" xmlns="http://www.w3.org/2000/svg">
<g clip-path="url(#clip0_1_8596)">
<g clip-path="url(#clip1_1_8596)">
<g clip-path="url(#clip2_1_8596)">
<mask id="mask0_1_8596" style="mask-type:luminance" maskUnits="userSpaceOnUse" x="66" y="41" width="185" height="78">
<path d="M250.125 41H66.125V118.474H250.125V41Z" fill="white"/>
</mask>
<g mask="url(#mask0_1_8596)">
<path d="M116.629 91.1685C111.491 91.1685 108.089 87.2762 107.14 85.7686C108.358 76.2308 111.92 73.2152 116.629 73.2152C121.284 73.2152 124.9 76.862 124.9 82.1917C124.9 87.5216 121.284 91.1685 116.629 91.1685ZM116.629 67.3594C108.25 67.3594 103.56 72.7068 102.217 78.212C100.695 75.4068 99.5675 71.6548 98.6903 68.1659H87.1071V82.2795C87.1071 87.399 84.726 91.186 80.0713 91.186C75.4166 91.186 72.7491 87.399 72.7491 82.2795L72.8028 68.1659H66.125V82.2795C66.125 86.3997 67.4856 90.1341 69.9741 92.7989C72.5342 95.5516 76.0253 96.9892 80.0713 96.9892C88.1276 96.9892 93.7491 90.9406 93.7491 82.2795V72.7944C94.5904 75.9152 96.5957 81.9113 100.427 87.1711L96.8463 107.141H103.632L105.994 92.9918C106.764 93.6229 107.588 94.184 108.465 94.6925C110.739 96.0951 113.335 96.8841 116.02 96.9716C116.02 96.9716 116.432 96.9892 116.647 96.9892C124.954 96.9892 131.56 90.6952 131.56 82.1917C131.56 73.6886 124.936 67.3594 116.629 67.3594Z" fill="#9F9F9F"/>
<path d="M212.568 71.1832V68.1676H206.016V96.0967H212.658V85.1566C212.658 78.4241 213.284 73.5852 222.504 74.2163V67.8345C218.207 67.5189 214.86 68.3955 212.568 71.1832Z" fill="#9F9F9F"/>
<path d="M166.457 68.1719L161.641 87.703L156.503 68.1719H148.053L142.897 87.703L138.099 68.1719H131.367L138.743 96.1187H146.728L152.278 76.2719L157.774 96.1187H165.759L173.564 68.1719H166.457Z" fill="#9F9F9F"/>
<path d="M188.19 91.186C183.464 91.186 179.919 87.5394 179.919 82.1917C179.919 76.8444 183.482 73.2152 188.19 73.2152C192.845 73.2152 196.462 76.862 196.462 82.1917C196.462 87.5216 192.845 91.186 188.19 91.186ZM188.19 67.3594C179.83 67.3594 173.277 73.7061 173.277 82.1917C173.277 90.6775 179.83 96.9716 188.19 96.9716C196.497 96.9716 203.103 90.6775 203.103 82.1917C203.103 73.7061 196.515 67.3594 188.19 67.3594Z" fill="#9F9F9F"/>
<path d="M232.031 82.3699H233.571L242.844 96.1152H250.346L239.675 80.8795C244.85 78.8984 248.323 73.7263 248.323 68.1685H241.698C241.698 74.1997 236.847 76.4789 232.031 76.4789V57.1406H225.371V96.1152H232.013L232.031 82.3699Z" fill="#9F9F9F"/>
</g>
</g>
</g>
</g>
<defs>
<clipPath id="clip0_1_8596">
<rect width="184" height="78" fill="white" transform="translate(66.125 41)"/>
</clipPath>
<clipPath id="clip1_1_8596">
<rect width="184" height="78" fill="white" transform="translate(66.125 41)"/>
</clipPath>
<clipPath id="clip2_1_8596">
<rect width="184" height="78" fill="white" transform="translate(66.125 41)"/>
</clipPath>
</defs>
</svg>
