<svg width="1071" height="245" viewBox="0 0 1071 245" fill="none" xmlns="http://www.w3.org/2000/svg">
<mask id="path-1-outside-1_1_8158" maskUnits="userSpaceOnUse" x="1" y="46" width="1057" height="141" fill="black">
<rect fill="white" x="1" y="46" width="1057" height="141"/>
<path d="M61.1023 185H31.2963C28.1738 185 26.3996 183.51 25.9738 180.529L3.1935 52.5762C2.7677 49.5956 4.258 48.1053 7.6644 48.1053H29.806C33.0705 48.1053 34.7737 49.5956 34.9156 52.5762L47.2638 157.536H48.7541L69.1925 51.9375C69.6183 49.3827 71.1086 48.1053 73.6634 48.1053H97.5082C100.205 48.1053 101.766 49.3117 102.192 51.7246L123.056 157.536H124.759L136.895 52.7891C137.037 49.6666 138.74 48.1053 142.004 48.1053H164.146C167.552 48.1053 169.043 49.6666 168.617 52.7891L145.624 180.529C145.198 183.51 143.566 185 140.727 185H110.708C107.727 185 106.024 183.51 105.598 180.529L86.4374 80.679H85.5858L66.2119 180.529C65.6442 183.51 63.941 185 61.1023 185ZM259.661 185H190.043C187.063 185 185.572 183.51 185.572 180.529V52.5762C185.572 49.5956 187.063 48.1053 190.043 48.1053H259.661C262.5 48.1053 263.919 49.5956 263.919 52.5762V67.0534C263.919 70.034 262.5 71.5243 259.661 71.5243H215.165C213.462 71.5243 212.611 72.3049 212.611 73.8662V101.543C212.611 103.104 213.462 103.885 215.165 103.885H251.571C254.552 103.885 256.042 105.375 256.042 108.356V122.833C256.042 125.814 254.552 127.304 251.571 127.304H215.165C213.462 127.304 212.611 128.085 212.611 129.646V159.239C212.611 160.8 213.462 161.581 215.165 161.581H259.661C262.5 161.581 263.919 163.071 263.919 166.052V180.529C263.919 183.51 262.5 185 259.661 185ZM316.828 162.433H340.673C345.357 162.433 348.692 161.51 350.68 159.665C352.809 157.678 353.873 154.484 353.873 150.084V137.736C353.873 133.336 352.809 130.214 350.68 128.369C348.551 126.523 345.073 125.601 340.247 125.601H316.828C315.267 125.601 314.487 126.382 314.487 127.943V160.091C314.487 161.652 315.267 162.433 316.828 162.433ZM316.828 103.672H338.544C343.086 103.672 346.422 102.75 348.551 100.905C350.68 98.9174 351.744 95.7239 351.744 91.324V83.0209C351.744 78.621 350.68 75.4984 348.551 73.6533C346.563 71.6662 343.299 70.6727 338.757 70.6727H316.828C315.267 70.6727 314.487 71.4533 314.487 73.0146V101.33C314.487 102.892 315.267 103.672 316.828 103.672ZM287.448 180.529V52.5762C287.448 49.5956 288.939 48.1053 291.919 48.1053H343.015C354.228 48.1053 362.886 51.0859 368.989 57.0471C375.092 63.0083 378.144 71.5243 378.144 82.5951V91.324C378.144 103.388 372.537 111.195 361.325 114.743C367.002 115.595 371.544 117.937 374.95 121.769C378.357 125.459 380.06 130.781 380.06 137.736V150.51C380.06 161.581 377.008 170.097 370.905 176.058C364.802 182.019 356.215 185 345.144 185H291.919C288.939 185 287.448 183.51 287.448 180.529ZM481.701 161.581H504.907C509.449 161.581 512.643 160.658 514.488 158.813C516.475 156.826 517.468 153.562 517.468 149.02V84.0854C517.468 79.5435 516.475 76.35 514.488 74.5049C512.643 72.5178 509.449 71.5243 504.907 71.5243H481.701C480.14 71.5243 479.359 72.3049 479.359 73.8662V159.239C479.359 160.8 480.14 161.581 481.701 161.581ZM452.321 180.529V52.5762C452.321 49.5956 453.811 48.1053 456.792 48.1053H509.378C520.449 48.1053 529.036 51.1569 535.139 57.26C541.384 63.2212 544.507 71.7372 544.507 82.808V150.297C544.507 161.368 541.384 169.955 535.139 176.058C529.036 182.019 520.449 185 509.378 185H456.792C453.811 185 452.321 183.51 452.321 180.529ZM644.087 185H574.469C571.488 185 569.998 183.51 569.998 180.529V52.5762C569.998 49.5956 571.488 48.1053 574.469 48.1053H644.087C646.926 48.1053 648.345 49.5956 648.345 52.5762V67.0534C648.345 70.034 646.926 71.5243 644.087 71.5243H599.591C597.888 71.5243 597.036 72.3049 597.036 73.8662V101.543C597.036 103.104 597.888 103.885 599.591 103.885H635.997C638.978 103.885 640.468 105.375 640.468 108.356V122.833C640.468 125.814 638.978 127.304 635.997 127.304H599.591C597.888 127.304 597.036 128.085 597.036 129.646V159.239C597.036 160.8 597.888 161.581 599.591 161.581H644.087C646.926 161.581 648.345 163.071 648.345 166.052V180.529C648.345 183.51 646.926 185 644.087 185ZM668.468 150.084V145.826C668.468 142.846 669.958 141.355 672.939 141.355H691.035C694.016 141.355 695.506 142.846 695.506 145.826V147.53C695.506 152.923 696.571 156.613 698.7 158.6C700.829 160.587 704.732 161.581 710.409 161.581H720.415C725.951 161.581 729.783 160.516 731.912 158.388C734.183 156.259 735.318 152.284 735.318 146.465V143.91C735.318 139.794 733.615 136.672 730.209 134.543C726.944 132.272 722.828 130.923 717.861 130.498C712.893 130.072 707.499 129.291 701.68 128.156C696.003 126.878 690.68 125.317 685.713 123.472C680.745 121.485 676.558 117.724 673.152 112.188C669.887 106.511 668.255 99.2723 668.255 90.4724V83.0209C668.255 71.9501 671.377 63.3631 677.622 57.26C683.868 51.1569 692.525 48.1053 703.596 48.1053H724.886C736.099 48.1053 744.828 51.1569 751.073 57.26C757.318 63.3631 760.441 71.9501 760.441 83.0209V87.066C760.441 90.0466 758.95 91.5369 755.97 91.5369H737.873C734.893 91.5369 733.402 90.0466 733.402 87.066V85.7886C733.402 80.2532 732.338 76.492 730.209 74.5049C728.08 72.5178 724.177 71.5243 718.499 71.5243H710.196C704.377 71.5243 700.403 72.6598 698.274 74.9307C696.287 77.0597 695.293 81.3177 695.293 87.7047V91.7498C695.293 98.4207 701.112 102.253 712.751 103.246C724.815 104.24 735.531 106.653 744.899 110.485C749.867 112.614 753.983 116.446 757.247 121.982C760.653 127.375 762.357 134.33 762.357 142.846V150.084C762.357 161.155 759.234 169.742 752.989 175.845C746.744 181.948 738.086 185 727.015 185H703.809C692.738 185 684.08 181.948 677.835 175.845C671.59 169.742 668.468 161.155 668.468 150.084ZM814.743 52.5762V180.529C814.743 183.51 813.253 185 810.272 185H792.176C789.195 185 787.705 183.51 787.705 180.529V52.5762C787.705 49.5956 789.195 48.1053 792.176 48.1053H810.272C813.253 48.1053 814.743 49.5956 814.743 52.5762ZM898.967 185H876.4C865.187 185 856.529 182.019 850.426 176.058C844.323 170.097 841.271 161.51 841.271 150.297V82.808C841.271 71.5953 844.323 63.0083 850.426 57.0471C856.529 51.0859 865.187 48.1053 876.4 48.1053H898.967C910.038 48.1053 918.625 51.1569 924.728 57.26C930.831 63.2212 933.883 71.7372 933.883 82.808V89.195C933.883 92.3175 932.392 93.8788 929.412 93.8788H911.315C908.335 93.8788 906.844 92.3175 906.844 89.195V84.0854C906.844 79.5435 905.922 76.35 904.077 74.5049C902.231 72.5178 899.038 71.5243 894.496 71.5243H880.658C876.258 71.5243 873.064 72.5178 871.077 74.5049C869.232 76.35 868.309 79.5435 868.309 84.0854V149.02C868.309 153.562 869.232 156.826 871.077 158.813C873.064 160.658 876.258 161.581 880.658 161.581H894.496C899.038 161.581 902.231 160.658 904.077 158.813C905.922 156.826 906.844 153.562 906.844 149.02V135.607C906.844 134.046 906.064 133.265 904.502 133.265H891.728C888.748 133.265 887.257 131.775 887.257 128.794V114.317C887.257 111.337 888.748 109.846 891.728 109.846H928.986C932.25 109.846 933.883 111.479 933.883 114.743V150.297C933.883 161.368 930.831 169.955 924.728 176.058C918.625 182.019 910.038 185 898.967 185ZM981.555 185H963.885C960.904 185 959.414 183.51 959.414 180.529V52.5762C959.414 49.5956 960.904 48.1053 963.885 48.1053H979.852C982.833 48.1053 984.82 49.0988 985.813 51.0859L1028.82 131.775H1029.67V52.5762C1029.67 49.5956 1031.16 48.1053 1034.14 48.1053H1051.81C1054.79 48.1053 1056.28 49.5956 1056.28 52.5762V180.529C1056.28 183.51 1054.79 185 1051.81 185H1036.27C1033.15 185 1030.88 183.581 1029.46 180.742L986.878 101.543H986.026V180.529C986.026 183.51 984.536 185 981.555 185Z"/>
</mask>
<path d="M25.9738 180.529L27.2112 180.352L27.2082 180.331L27.2044 180.31L25.9738 180.529ZM3.1935 52.5762L1.95606 52.753L1.95909 52.7742L1.96285 52.7953L3.1935 52.5762ZM34.9156 52.5762L33.667 52.6357L33.6691 52.6791L33.6742 52.7222L34.9156 52.5762ZM47.2638 157.536L46.0224 157.682L46.1522 158.786H47.2638V157.536ZM48.7541 157.536V158.786H49.7854L49.9813 157.773L48.7541 157.536ZM69.1925 51.9375L70.4197 52.175L70.4228 52.1591L70.4255 52.143L69.1925 51.9375ZM102.192 51.7246L100.961 51.9418L100.963 51.9541L100.966 51.9664L102.192 51.7246ZM123.056 157.536L121.83 157.778L122.029 158.786H123.056V157.536ZM124.759 157.536V158.786H125.873L126.001 157.68L124.759 157.536ZM136.895 52.7891L138.136 52.933L138.141 52.8895L138.143 52.8459L136.895 52.7891ZM168.617 52.7891L169.847 53.0105L169.852 52.9843L169.855 52.958L168.617 52.7891ZM145.624 180.529L144.393 180.308L144.389 180.33L144.386 180.352L145.624 180.529ZM105.598 180.529L106.836 180.352L106.832 180.323L106.826 180.294L105.598 180.529ZM86.4374 80.679L87.665 80.4434L87.4703 79.429H86.4374V80.679ZM85.5858 80.679V79.429H84.555L84.3587 80.4409L85.5858 80.679ZM66.2119 180.529L64.9848 180.291L64.984 180.295L66.2119 180.529ZM61.1023 185V183.75H31.2963V185V186.25H61.1023V185ZM31.2963 185V183.75C29.9265 183.75 29.0219 183.424 28.4278 182.925C27.8398 182.431 27.394 181.632 27.2112 180.352L25.9738 180.529L24.7364 180.706C24.9794 182.407 25.6336 183.843 26.8198 184.839C27.9998 185.831 29.5435 186.25 31.2963 186.25V185ZM25.9738 180.529L27.2044 180.31L4.42415 52.3571L3.1935 52.5762L1.96285 52.7953L24.7432 180.748L25.9738 180.529ZM3.1935 52.5762L4.43094 52.3994C4.24848 51.1222 4.51443 50.4682 4.87576 50.1069C5.27717 49.7055 6.09696 49.3553 7.6644 49.3553V48.1053V46.8553C5.82544 46.8553 4.19688 47.2503 3.10799 48.3391C1.97902 49.4681 1.71272 51.0496 1.95606 52.753L3.1935 52.5762ZM7.6644 48.1053V49.3553H29.806V48.1053V46.8553H7.6644V48.1053ZM29.806 48.1053V49.3553C31.2673 49.3553 32.1676 49.6904 32.7086 50.1637C33.2305 50.6204 33.6068 51.3719 33.667 52.6357L34.9156 52.5762L36.1642 52.5167C36.0824 50.7999 35.5362 49.316 34.3549 48.2823C33.1927 47.2654 31.6092 46.8553 29.806 46.8553V48.1053ZM34.9156 52.5762L33.6742 52.7222L46.0224 157.682L47.2638 157.536L48.5052 157.39L36.157 52.4301L34.9156 52.5762ZM47.2638 157.536V158.786H48.7541V157.536V156.286H47.2638V157.536ZM48.7541 157.536L49.9813 157.773L70.4197 52.175L69.1925 51.9375L67.9653 51.7L47.5269 157.298L48.7541 157.536ZM69.1925 51.9375L70.4255 52.143C70.6057 51.0616 70.9834 50.4065 71.4431 50.0124C71.9006 49.6202 72.5927 49.3553 73.6634 49.3553V48.1053V46.8553C72.1793 46.8553 70.8488 47.2291 69.8161 48.1143C68.7855 48.9977 68.2051 50.2587 67.9595 51.732L69.1925 51.9375ZM73.6634 48.1053V49.3553H97.5082V48.1053V46.8553H73.6634V48.1053ZM97.5082 48.1053V49.3553C98.6802 49.3553 99.4436 49.6176 99.9374 49.9992C100.416 50.3691 100.789 50.9645 100.961 51.9418L102.192 51.7246L103.423 51.5074C103.17 50.0718 102.549 48.8576 101.466 48.021C100.399 47.1962 99.033 46.8553 97.5082 46.8553V48.1053ZM102.192 51.7246L100.966 51.9664L121.83 157.778L123.056 157.536L124.283 157.294L103.418 51.4828L102.192 51.7246ZM123.056 157.536V158.786H124.759V157.536V156.286H123.056V157.536ZM124.759 157.536L126.001 157.68L138.136 52.933L136.895 52.7891L135.653 52.6452L123.518 157.392L124.759 157.536ZM136.895 52.7891L138.143 52.8459C138.205 51.4952 138.591 50.6852 139.123 50.1977C139.664 49.7018 140.556 49.3553 142.004 49.3553V48.1053V46.8553C140.188 46.8553 138.596 47.2895 137.434 48.3548C136.263 49.4286 135.727 50.9604 135.646 52.7323L136.895 52.7891ZM142.004 48.1053V49.3553H164.146V48.1053V46.8553H142.004V48.1053ZM164.146 48.1053V49.3553C165.7 49.3553 166.511 49.7171 166.914 50.1393C167.293 50.5359 167.564 51.2561 167.378 52.6202L168.617 52.7891L169.855 52.958C170.095 51.1996 169.834 49.5778 168.723 48.4131C167.635 47.2742 165.998 46.8553 164.146 46.8553V48.1053ZM168.617 52.7891L167.387 52.5677L144.393 180.308L145.624 180.529L146.854 180.751L169.847 53.0105L168.617 52.7891ZM145.624 180.529L144.386 180.352C144.199 181.659 143.773 182.47 143.237 182.959C142.711 183.44 141.926 183.75 140.727 183.75V185V186.25C142.367 186.25 143.817 185.815 144.923 184.805C146.019 183.804 146.622 182.38 146.861 180.706L145.624 180.529ZM140.727 185V183.75H110.708V185V186.25H140.727V185ZM110.708 185V183.75C109.423 183.75 108.578 183.431 108.018 182.942C107.457 182.45 107.021 181.646 106.836 180.352L105.598 180.529L104.361 180.706C104.602 182.393 105.23 183.824 106.372 184.823C107.516 185.824 109.013 186.25 110.708 186.25V185ZM105.598 180.529L106.826 180.294L87.665 80.4434L86.4374 80.679L85.2098 80.9146L104.371 180.765L105.598 180.529ZM86.4374 80.679V79.429H85.5858V80.679V81.929H86.4374V80.679ZM85.5858 80.679L84.3587 80.4409L64.9848 180.291L66.2119 180.529L67.439 180.767L86.8129 80.9171L85.5858 80.679ZM66.2119 180.529L64.984 180.295C64.7346 181.604 64.2655 182.434 63.6856 182.942C63.1154 183.44 62.2985 183.75 61.1023 183.75V185V186.25C62.7448 186.25 64.1988 185.814 65.3318 184.823C66.4551 183.84 67.1215 182.434 67.4398 180.763L66.2119 180.529ZM259.661 185V183.75H190.043V185V186.25H259.661V185ZM190.043 185V183.75C188.746 183.75 188.002 183.426 187.574 182.998C187.146 182.57 186.822 181.827 186.822 180.529H185.572H184.322C184.322 182.212 184.744 183.704 185.806 184.766C186.868 185.828 188.36 186.25 190.043 186.25V185ZM185.572 180.529H186.822V52.5762H185.572H184.322V180.529H185.572ZM185.572 52.5762H186.822C186.822 51.2786 187.146 50.535 187.574 50.1069C188.002 49.6789 188.746 49.3553 190.043 49.3553V48.1053V46.8553C188.36 46.8553 186.868 47.2769 185.806 48.3391C184.744 49.4014 184.322 50.8932 184.322 52.5762H185.572ZM190.043 48.1053V49.3553H259.661V48.1053V46.8553H190.043V48.1053ZM259.661 48.1053V49.3553C260.872 49.3553 261.555 49.67 261.95 50.0851C262.356 50.5116 262.669 51.2638 262.669 52.5762H263.919H265.169C265.169 50.908 264.773 49.4248 263.76 48.361C262.736 47.2857 261.289 46.8553 259.661 46.8553V48.1053ZM263.919 52.5762H262.669V67.0534H263.919H265.169V52.5762H263.919ZM263.919 67.0534H262.669C262.669 68.3658 262.356 69.118 261.95 69.5445C261.555 69.9595 260.872 70.2743 259.661 70.2743V71.5243V72.7743C261.289 72.7743 262.736 72.3439 263.76 71.2686C264.773 70.2048 265.169 68.7216 265.169 67.0534H263.919ZM259.661 71.5243V70.2743H215.165V71.5243V72.7743H259.661V71.5243ZM215.165 71.5243V70.2743C214.147 70.2743 213.15 70.5054 212.405 71.1883C211.639 71.8901 211.361 72.8636 211.361 73.8662H212.611H213.861C213.861 73.3076 214.008 73.1101 214.094 73.0312C214.201 72.9335 214.481 72.7743 215.165 72.7743V71.5243ZM212.611 73.8662H211.361V101.543H212.611H213.861V73.8662H212.611ZM212.611 101.543H211.361C211.361 102.546 211.639 103.519 212.405 104.221C213.15 104.904 214.147 105.135 215.165 105.135V103.885V102.635C214.481 102.635 214.201 102.476 214.094 102.378C214.008 102.299 213.861 102.102 213.861 101.543H212.611ZM215.165 103.885V105.135H251.571V103.885V102.635H215.165V103.885ZM251.571 103.885V105.135C252.869 105.135 253.613 105.459 254.041 105.887C254.469 106.315 254.792 107.058 254.792 108.356H256.042H257.292C257.292 106.673 256.871 105.181 255.808 104.119C254.746 103.057 253.254 102.635 251.571 102.635V103.885ZM256.042 108.356H254.792V122.833H256.042H257.292V108.356H256.042ZM256.042 122.833H254.792C254.792 124.131 254.469 124.874 254.041 125.302C253.613 125.731 252.869 126.054 251.571 126.054V127.304V128.554C253.254 128.554 254.746 128.133 255.808 127.07C256.871 126.008 257.292 124.516 257.292 122.833H256.042ZM251.571 127.304V126.054H215.165V127.304V128.554H251.571V127.304ZM215.165 127.304V126.054C214.147 126.054 213.15 126.285 212.405 126.968C211.639 127.67 211.361 128.643 211.361 129.646H212.611H213.861C213.861 129.087 214.008 128.89 214.094 128.811C214.201 128.713 214.481 128.554 215.165 128.554V127.304ZM212.611 129.646H211.361V159.239H212.611H213.861V129.646H212.611ZM212.611 159.239H211.361C211.361 160.242 211.639 161.215 212.405 161.917C213.15 162.6 214.147 162.831 215.165 162.831V161.581V160.331C214.481 160.331 214.201 160.172 214.094 160.074C214.008 159.995 213.861 159.798 213.861 159.239H212.611ZM215.165 161.581V162.831H259.661V161.581V160.331H215.165V161.581ZM259.661 161.581V162.831C260.872 162.831 261.555 163.146 261.95 163.561C262.356 163.987 262.669 164.739 262.669 166.052H263.919H265.169C265.169 164.384 264.773 162.9 263.76 161.837C262.736 160.761 261.289 160.331 259.661 160.331V161.581ZM263.919 166.052H262.669V180.529H263.919H265.169V166.052H263.919ZM263.919 180.529H262.669C262.669 181.842 262.356 182.594 261.95 183.02C261.555 183.435 260.872 183.75 259.661 183.75V185V186.25C261.289 186.25 262.736 185.82 263.76 184.744C264.773 183.68 265.169 182.197 265.169 180.529H263.919ZM350.68 159.665L351.53 160.581L351.532 160.579L350.68 159.665ZM350.68 128.369L349.861 129.313V129.313L350.68 128.369ZM348.551 100.905L349.369 101.849L349.387 101.834L349.403 101.818L348.551 100.905ZM348.551 73.6533L347.667 74.5372L347.698 74.5687L347.732 74.5979L348.551 73.6533ZM368.989 57.0471L368.116 57.9413V57.9413L368.989 57.0471ZM361.325 114.743L360.947 113.551L361.139 115.979L361.325 114.743ZM374.95 121.769L374.016 122.599L374.024 122.608L374.032 122.617L374.95 121.769ZM316.828 162.433V163.683H340.673V162.433V161.183H316.828V162.433ZM340.673 162.433V163.683C345.461 163.683 349.193 162.751 351.53 160.581L350.68 159.665L349.829 158.749C348.192 160.269 345.253 161.183 340.673 161.183V162.433ZM350.68 159.665L351.532 160.579C354.02 158.257 355.123 154.655 355.123 150.084H353.873H352.623C352.623 154.314 351.597 157.099 349.827 158.751L350.68 159.665ZM353.873 150.084H355.123V137.736H353.873H352.623V150.084H353.873ZM353.873 137.736H355.123C355.123 133.176 354.024 129.613 351.498 127.424L350.68 128.369L349.861 129.313C351.593 130.814 352.623 133.496 352.623 137.736H353.873ZM350.68 128.369L351.498 127.424C349.028 125.283 345.178 124.351 340.247 124.351V125.601V126.851C344.969 126.851 348.073 127.764 349.861 129.313L350.68 128.369ZM340.247 125.601V124.351H316.828V125.601V126.851H340.247V125.601ZM316.828 125.601V124.351C315.855 124.351 314.896 124.595 314.188 125.302C313.481 126.01 313.237 126.969 313.237 127.943H314.487H315.737C315.737 127.355 315.883 127.143 315.956 127.07C316.029 126.997 316.24 126.851 316.828 126.851V125.601ZM314.487 127.943H313.237V160.091H314.487H315.737V127.943H314.487ZM314.487 160.091H313.237C313.237 161.064 313.481 162.024 314.188 162.731C314.896 163.438 315.855 163.683 316.828 163.683V162.433V161.183C316.24 161.183 316.029 161.036 315.956 160.963C315.883 160.89 315.737 160.679 315.737 160.091H314.487ZM316.828 103.672V104.922H338.544V103.672V102.422H316.828V103.672ZM338.544 103.672V104.922C343.214 104.922 346.91 103.981 349.369 101.849L348.551 100.905L347.732 99.9599C345.934 101.518 342.958 102.422 338.544 102.422V103.672ZM348.551 100.905L349.403 101.818C351.891 99.4967 352.994 95.8941 352.994 91.324H351.744H350.494C350.494 95.5537 349.468 98.3381 347.698 99.9907L348.551 100.905ZM351.744 91.324H352.994V83.0209H351.744H350.494V91.324H351.744ZM351.744 83.0209H352.994C352.994 78.461 351.895 74.8977 349.369 72.7087L348.551 73.6533L347.732 74.5979C349.464 76.0991 350.494 78.781 350.494 83.0209H351.744ZM348.551 73.6533L349.434 72.7694C347.104 70.4386 343.435 69.4227 338.757 69.4227V70.6727V71.9227C343.163 71.9227 346.023 72.8939 347.667 74.5372L348.551 73.6533ZM338.757 70.6727V69.4227H316.828V70.6727V71.9227H338.757V70.6727ZM316.828 70.6727V69.4227C315.855 69.4227 314.896 69.6669 314.188 70.3743C313.481 71.0817 313.237 72.0413 313.237 73.0146H314.487H315.737C315.737 72.4267 315.883 72.2153 315.956 72.1421C316.029 72.0688 316.24 71.9227 316.828 71.9227V70.6727ZM314.487 73.0146H313.237V101.33H314.487H315.737V73.0146H314.487ZM314.487 101.33H313.237C313.237 102.304 313.481 103.263 314.188 103.971C314.896 104.678 315.855 104.922 316.828 104.922V103.672V102.422C316.24 102.422 316.029 102.276 315.956 102.203C315.883 102.13 315.737 101.918 315.737 101.33H314.487ZM287.448 180.529H288.698V52.5762H287.448H286.198V180.529H287.448ZM287.448 52.5762H288.698C288.698 51.2786 289.022 50.535 289.45 50.1069C289.878 49.6789 290.622 49.3553 291.919 49.3553V48.1053V46.8553C290.236 46.8553 288.744 47.2769 287.682 48.3391C286.62 49.4014 286.198 50.8932 286.198 52.5762H287.448ZM291.919 48.1053V49.3553H343.015V48.1053V46.8553H291.919V48.1053ZM343.015 48.1053V49.3553C354.008 49.3553 362.312 52.2729 368.116 57.9413L368.989 57.0471L369.862 56.1529C363.459 49.8988 354.448 46.8553 343.015 46.8553V48.1053ZM368.989 57.0471L368.116 57.9413C373.912 63.6029 376.894 71.756 376.894 82.5951H378.144H379.394C379.394 71.2926 376.272 62.4137 369.862 56.1529L368.989 57.0471ZM378.144 82.5951H376.894V91.324H378.144H379.394V82.5951H378.144ZM378.144 91.324H376.894C376.894 97.1619 375.539 101.856 372.924 105.498C370.31 109.137 366.355 111.84 360.947 113.551L361.325 114.743L361.702 115.935C367.506 114.098 371.961 111.124 374.954 106.956C377.945 102.792 379.394 97.5504 379.394 91.324H378.144ZM361.325 114.743L361.139 115.979C366.564 116.793 370.827 119.012 374.016 122.599L374.95 121.769L375.884 120.938C372.26 116.861 367.44 114.396 361.51 113.507L361.325 114.743ZM374.95 121.769L374.032 122.617C377.155 126 378.81 130.974 378.81 137.736H380.06H381.31C381.31 130.589 379.558 124.918 375.869 120.921L374.95 121.769ZM380.06 137.736H378.81V150.51H380.06H381.31V137.736H380.06ZM380.06 150.51H378.81C378.81 161.349 375.828 169.502 370.032 175.164L370.905 176.058L371.778 176.952C378.188 170.692 381.31 161.813 381.31 150.51H380.06ZM370.905 176.058L370.032 175.164C364.225 180.835 355.99 183.75 345.144 183.75V185V186.25C356.44 186.25 365.378 183.204 371.778 176.952L370.905 176.058ZM345.144 185V183.75H291.919V185V186.25H345.144V185ZM291.919 185V183.75C290.622 183.75 289.878 183.426 289.45 182.998C289.022 182.57 288.698 181.827 288.698 180.529H287.448H286.198C286.198 182.212 286.62 183.704 287.682 184.766C288.744 185.828 290.236 186.25 291.919 186.25V185ZM514.488 158.813L515.372 159.697V159.697L514.488 158.813ZM514.488 74.5049L513.572 75.3555L513.603 75.3894L513.637 75.4209L514.488 74.5049ZM535.139 57.26L534.255 58.1439L534.266 58.1542L534.276 58.1642L535.139 57.26ZM535.139 176.058L536.013 176.952L536.013 176.952L535.139 176.058ZM481.701 161.581V162.831H504.907V161.581V160.331H481.701V161.581ZM504.907 161.581V162.831C509.553 162.831 513.169 161.9 515.372 159.697L514.488 158.813L513.604 157.929C512.116 159.417 509.345 160.331 504.907 160.331V161.581ZM514.488 158.813L515.372 159.697C517.703 157.366 518.718 153.698 518.718 149.02H517.468H516.218C516.218 153.426 515.247 156.286 513.604 157.929L514.488 158.813ZM517.468 149.02H518.718V84.0854H517.468H516.218V149.02H517.468ZM517.468 84.0854H518.718C518.718 79.4198 517.708 75.7888 515.338 73.5889L514.488 74.5049L513.637 75.4209C515.242 76.9112 516.218 79.6672 516.218 84.0854H517.468ZM514.488 74.5049L515.404 73.6543C513.204 71.2852 509.573 70.2743 504.907 70.2743V71.5243V72.7743C509.325 72.7743 512.081 73.7505 513.572 75.3555L514.488 74.5049ZM504.907 71.5243V70.2743H481.701V71.5243V72.7743H504.907V71.5243ZM481.701 71.5243V70.2743C480.728 70.2743 479.768 70.5185 479.061 71.2259C478.353 71.9333 478.109 72.8929 478.109 73.8662H479.359H480.609C480.609 73.2782 480.755 73.0669 480.829 72.9937C480.902 72.9204 481.113 72.7743 481.701 72.7743V71.5243ZM479.359 73.8662H478.109V159.239H479.359H480.609V73.8662H479.359ZM479.359 159.239H478.109C478.109 160.212 478.353 161.172 479.061 161.879C479.768 162.587 480.728 162.831 481.701 162.831V161.581V160.331C481.113 160.331 480.902 160.185 480.829 160.112C480.755 160.038 480.609 159.827 480.609 159.239H479.359ZM452.321 180.529H453.571V52.5762H452.321H451.071V180.529H452.321ZM452.321 52.5762H453.571C453.571 51.2786 453.895 50.535 454.323 50.1069C454.751 49.6789 455.494 49.3553 456.792 49.3553V48.1053V46.8553C455.109 46.8553 453.617 47.2769 452.555 48.3391C451.493 49.4014 451.071 50.8932 451.071 52.5762H452.321ZM456.792 48.1053V49.3553H509.378V48.1053V46.8553H456.792V48.1053ZM509.378 48.1053V49.3553C520.216 49.3553 528.448 52.3365 534.255 58.1439L535.139 57.26L536.023 56.3761C529.624 49.9773 520.682 46.8553 509.378 46.8553V48.1053ZM535.139 57.26L534.276 58.1642C540.209 63.8275 543.257 71.9771 543.257 82.808H544.507H545.757C545.757 71.4973 542.559 62.6149 536.002 56.3558L535.139 57.26ZM544.507 82.808H543.257V150.297H544.507H545.757V82.808H544.507ZM544.507 150.297H543.257C543.257 161.127 540.209 169.355 534.265 175.164L535.139 176.058L536.013 176.952C542.559 170.555 545.757 161.61 545.757 150.297H544.507ZM535.139 176.058L534.266 175.164C528.46 180.835 520.224 183.75 509.378 183.75V185V186.25C520.674 186.25 529.612 183.204 536.013 176.952L535.139 176.058ZM509.378 185V183.75H456.792V185V186.25H509.378V185ZM456.792 185V183.75C455.494 183.75 454.751 183.426 454.323 182.998C453.895 182.57 453.571 181.827 453.571 180.529H452.321H451.071C451.071 182.212 451.493 183.704 452.555 184.766C453.617 185.828 455.109 186.25 456.792 186.25V185ZM644.087 185V183.75H574.469V185V186.25H644.087V185ZM574.469 185V183.75C573.171 183.75 572.428 183.426 572 182.998C571.572 182.57 571.248 181.827 571.248 180.529H569.998H568.748C568.748 182.212 569.17 183.704 570.232 184.766C571.294 185.828 572.786 186.25 574.469 186.25V185ZM569.998 180.529H571.248V52.5762H569.998H568.748V180.529H569.998ZM569.998 52.5762H571.248C571.248 51.2786 571.572 50.535 572 50.1069C572.428 49.6789 573.171 49.3553 574.469 49.3553V48.1053V46.8553C572.786 46.8553 571.294 47.2769 570.232 48.3391C569.17 49.4014 568.748 50.8932 568.748 52.5762H569.998ZM574.469 48.1053V49.3553H644.087V48.1053V46.8553H574.469V48.1053ZM644.087 48.1053V49.3553C645.298 49.3553 645.98 49.67 646.376 50.0851C646.782 50.5116 647.095 51.2638 647.095 52.5762H648.345H649.595C649.595 50.908 649.199 49.4248 648.186 48.361C647.162 47.2857 645.715 46.8553 644.087 46.8553V48.1053ZM648.345 52.5762H647.095V67.0534H648.345H649.595V52.5762H648.345ZM648.345 67.0534H647.095C647.095 68.3658 646.782 69.118 646.376 69.5445C645.98 69.9595 645.298 70.2743 644.087 70.2743V71.5243V72.7743C645.715 72.7743 647.162 72.3439 648.186 71.2686C649.199 70.2048 649.595 68.7216 649.595 67.0534H648.345ZM644.087 71.5243V70.2743H599.591V71.5243V72.7743H644.087V71.5243ZM599.591 71.5243V70.2743C598.573 70.2743 597.576 70.5054 596.831 71.1883C596.065 71.8901 595.786 72.8636 595.786 73.8662H597.036H598.286C598.286 73.3076 598.434 73.1101 598.52 73.0312C598.626 72.9335 598.907 72.7743 599.591 72.7743V71.5243ZM597.036 73.8662H595.786V101.543H597.036H598.286V73.8662H597.036ZM597.036 101.543H595.786C595.786 102.546 596.065 103.519 596.831 104.221C597.576 104.904 598.573 105.135 599.591 105.135V103.885V102.635C598.907 102.635 598.626 102.476 598.52 102.378C598.434 102.299 598.286 102.102 598.286 101.543H597.036ZM599.591 103.885V105.135H635.997V103.885V102.635H599.591V103.885ZM635.997 103.885V105.135C637.295 105.135 638.038 105.459 638.466 105.887C638.895 106.315 639.218 107.058 639.218 108.356H640.468H641.718C641.718 106.673 641.297 105.181 640.234 104.119C639.172 103.057 637.68 102.635 635.997 102.635V103.885ZM640.468 108.356H639.218V122.833H640.468H641.718V108.356H640.468ZM640.468 122.833H639.218C639.218 124.131 638.895 124.874 638.466 125.302C638.038 125.731 637.295 126.054 635.997 126.054V127.304V128.554C637.68 128.554 639.172 128.133 640.234 127.07C641.297 126.008 641.718 124.516 641.718 122.833H640.468ZM635.997 127.304V126.054H599.591V127.304V128.554H635.997V127.304ZM599.591 127.304V126.054C598.573 126.054 597.576 126.285 596.831 126.968C596.065 127.67 595.786 128.643 595.786 129.646H597.036H598.286C598.286 129.087 598.434 128.89 598.52 128.811C598.626 128.713 598.907 128.554 599.591 128.554V127.304ZM597.036 129.646H595.786V159.239H597.036H598.286V129.646H597.036ZM597.036 159.239H595.786C595.786 160.242 596.065 161.215 596.831 161.917C597.576 162.6 598.573 162.831 599.591 162.831V161.581V160.331C598.907 160.331 598.626 160.172 598.52 160.074C598.434 159.995 598.286 159.798 598.286 159.239H597.036ZM599.591 161.581V162.831H644.087V161.581V160.331H599.591V161.581ZM644.087 161.581V162.831C645.298 162.831 645.98 163.146 646.376 163.561C646.782 163.987 647.095 164.739 647.095 166.052H648.345H649.595C649.595 164.384 649.199 162.9 648.186 161.837C647.162 160.761 645.715 160.331 644.087 160.331V161.581ZM648.345 166.052H647.095V180.529H648.345H649.595V166.052H648.345ZM648.345 180.529H647.095C647.095 181.842 646.782 182.594 646.376 183.02C645.98 183.435 645.298 183.75 644.087 183.75V185V186.25C645.715 186.25 647.162 185.82 648.186 184.744C649.199 183.68 649.595 182.197 649.595 180.529H648.345ZM698.7 158.6L697.847 159.514V159.514L698.7 158.6ZM731.912 158.387L731.057 157.476L731.042 157.489L731.028 157.504L731.912 158.387ZM730.209 134.543L729.495 135.569L729.52 135.586L729.546 135.603L730.209 134.543ZM717.861 130.498L717.967 129.252V129.252L717.861 130.498ZM701.68 128.156L701.406 129.375L701.423 129.379L701.441 129.383L701.68 128.156ZM685.713 123.472L685.248 124.632L685.263 124.638L685.277 124.644L685.713 123.472ZM673.152 112.188L672.068 112.811L672.077 112.827L672.087 112.843L673.152 112.188ZM677.622 57.26L678.496 58.154V58.154L677.622 57.26ZM751.073 57.26L750.199 58.154V58.154L751.073 57.26ZM730.209 74.5049L731.062 73.5911V73.5911L730.209 74.5049ZM698.274 74.9307L697.362 74.0758L697.36 74.0778L698.274 74.9307ZM712.751 103.246L712.645 104.492L712.648 104.492L712.751 103.246ZM744.899 110.485L745.391 109.336L745.382 109.332L745.372 109.328L744.899 110.485ZM757.247 121.982L756.17 122.617L756.18 122.633L756.19 122.649L757.247 121.982ZM677.835 175.845L676.962 176.739V176.739L677.835 175.845ZM668.468 150.084H669.718V145.826H668.468H667.218V150.084H668.468ZM668.468 145.826H669.718C669.718 144.529 670.041 143.785 670.469 143.357C670.897 142.929 671.641 142.605 672.939 142.605V141.355V140.105C671.256 140.105 669.764 140.527 668.702 141.589C667.639 142.652 667.218 144.143 667.218 145.826H668.468ZM672.939 141.355V142.605H691.035V141.355V140.105H672.939V141.355ZM691.035 141.355V142.605C692.333 142.605 693.076 142.929 693.504 143.357C693.932 143.785 694.256 144.529 694.256 145.826H695.506H696.756C696.756 144.143 696.334 142.652 695.272 141.589C694.21 140.527 692.718 140.105 691.035 140.105V141.355ZM695.506 145.826H694.256V147.53H695.506H696.756V145.826H695.506ZM695.506 147.53H694.256C694.256 153.001 695.319 157.155 697.847 159.514L698.7 158.6L699.552 157.687C697.822 156.072 696.756 152.845 696.756 147.53H695.506ZM698.7 158.6L697.847 159.514C700.346 161.847 704.677 162.831 710.409 162.831V161.581V160.331C704.787 160.331 701.312 159.328 699.552 157.687L698.7 158.6ZM710.409 161.581V162.831H720.415V161.581V160.331H710.409V161.581ZM720.415 161.581V162.831C726.031 162.831 730.3 161.767 732.796 159.271L731.912 158.387L731.028 157.504C729.266 159.266 725.871 160.331 720.415 160.331V161.581ZM731.912 158.387L732.767 159.299C735.436 156.797 736.568 152.358 736.568 146.465H735.318H734.068C734.068 152.211 732.929 155.72 731.057 157.476L731.912 158.387ZM735.318 146.465H736.568V143.91H735.318H734.068V146.465H735.318ZM735.318 143.91H736.568C736.568 139.376 734.654 135.847 730.871 133.483L730.209 134.543L729.546 135.603C732.576 137.496 734.068 140.212 734.068 143.91H735.318ZM730.209 134.543L730.923 133.517C727.438 131.093 723.098 129.692 717.967 129.252L717.861 130.498L717.754 131.743C722.558 132.155 726.45 133.451 729.495 135.569L730.209 134.543ZM717.861 130.498L717.967 129.252C713.052 128.831 707.703 128.057 701.92 126.929L701.68 128.156L701.441 129.383C707.296 130.525 712.734 131.313 717.754 131.743L717.861 130.498ZM701.68 128.156L701.955 126.936C696.327 125.67 691.058 124.124 686.148 122.3L685.713 123.472L685.277 124.644C690.302 126.51 695.679 128.087 701.406 129.375L701.68 128.156ZM685.713 123.472L686.177 122.311C681.508 120.444 677.513 116.89 674.216 111.533L673.152 112.188L672.087 112.843C675.603 118.557 679.982 122.526 685.248 124.632L685.713 123.472ZM673.152 112.188L674.235 111.565C671.111 106.132 669.505 99.126 669.505 90.4724H668.255H667.005C667.005 99.4185 668.663 106.89 672.068 112.811L673.152 112.188ZM668.255 90.4724H669.505V83.0209H668.255H667.005V90.4724H668.255ZM668.255 83.0209H669.505C669.505 72.1915 672.552 63.9629 678.496 58.154L677.622 57.26L676.749 56.366C670.203 62.7634 667.005 71.7087 667.005 83.0209H668.255ZM677.622 57.26L678.496 58.154C684.449 52.336 692.76 49.3553 703.596 49.3553V48.1053V46.8553C692.291 46.8553 683.286 49.9778 676.749 56.366L677.622 57.26ZM703.596 48.1053V49.3553H724.886V48.1053V46.8553H703.596V48.1053ZM724.886 48.1053V49.3553C735.869 49.3553 744.249 52.3388 750.199 58.154L751.073 57.26L751.947 56.366C745.407 49.9749 736.329 46.8553 724.886 46.8553V48.1053ZM751.073 57.26L750.199 58.154C756.143 63.9629 759.191 72.1915 759.191 83.0209H760.441H761.691C761.691 71.7087 758.493 62.7634 751.947 56.366L751.073 57.26ZM760.441 83.0209H759.191V87.066H760.441H761.691V83.0209H760.441ZM760.441 87.066H759.191C759.191 88.3636 758.867 89.1072 758.439 89.5353C758.011 89.9633 757.267 90.2869 755.97 90.2869V91.5369V92.7869C757.653 92.7869 759.144 92.3653 760.207 91.3031C761.269 90.2408 761.691 88.749 761.691 87.066H760.441ZM755.97 91.5369V90.2869H737.873V91.5369V92.7869H755.97V91.5369ZM737.873 91.5369V90.2869C736.576 90.2869 735.832 89.9633 735.404 89.5353C734.976 89.1072 734.652 88.3636 734.652 87.066H733.402H732.152C732.152 88.749 732.574 90.2408 733.636 91.3031C734.698 92.3653 736.19 92.7869 737.873 92.7869V91.5369ZM733.402 87.066H734.652V85.7886H733.402H732.152V87.066H733.402ZM733.402 85.7886H734.652C734.652 80.1873 733.594 75.9547 731.062 73.5911L730.209 74.5049L729.356 75.4187C731.081 77.0292 732.152 80.3191 732.152 85.7886H733.402ZM730.209 74.5049L731.062 73.5911C728.563 71.2588 724.232 70.2743 718.499 70.2743V71.5243V72.7743C724.122 72.7743 727.597 73.7769 729.356 75.4187L730.209 74.5049ZM718.499 71.5243V70.2743H710.196V71.5243V72.7743H718.499V71.5243ZM710.196 71.5243V70.2743C704.303 70.2743 699.864 71.4063 697.362 74.0758L698.274 74.9307L699.186 75.7856C700.941 73.9132 704.45 72.7743 710.196 72.7743V71.5243ZM698.274 74.9307L697.36 74.0778C696.161 75.3627 695.344 77.1938 694.821 79.4369C694.295 81.6909 694.043 84.4551 694.043 87.7047H695.293H696.543C696.543 84.5673 696.788 82.009 697.256 80.005C697.726 77.9901 698.4 76.6276 699.188 75.7836L698.274 74.9307ZM695.293 87.7047H694.043V91.7498H695.293H696.543V87.7047H695.293ZM695.293 91.7498H694.043C694.043 95.5276 695.728 98.5361 698.97 100.671C702.134 102.755 706.741 103.988 712.645 104.492L712.751 103.246L712.857 102.001C707.122 101.511 703 100.332 700.345 98.5831C697.768 96.8859 696.543 94.6428 696.543 91.7498H695.293ZM712.751 103.246L712.648 104.492C724.609 105.477 735.197 107.867 744.426 111.642L744.899 110.485L745.372 109.328C735.866 105.439 725.021 103.003 712.854 102.001L712.751 103.246ZM744.899 110.485L744.406 111.634C749.086 113.639 753.015 117.266 756.17 122.617L757.247 121.982L758.324 121.347C754.95 115.627 750.647 111.589 745.391 109.336L744.899 110.485ZM757.247 121.982L756.19 122.649C759.435 127.786 761.107 134.489 761.107 142.846H762.357H763.607C763.607 134.171 761.872 126.964 758.304 121.314L757.247 121.982ZM762.357 142.846H761.107V150.084H762.357H763.607V142.846H762.357ZM762.357 150.084H761.107C761.107 160.914 758.059 169.142 752.115 174.951L752.989 175.845L753.863 176.739C760.409 170.342 763.607 161.397 763.607 150.084H762.357ZM752.989 175.845L752.115 174.951C746.162 180.769 737.851 183.75 727.015 183.75V185V186.25C738.321 186.25 747.326 183.128 753.863 176.739L752.989 175.845ZM727.015 185V183.75H703.809V185V186.25H727.015V185ZM703.809 185V183.75C692.973 183.75 684.662 180.769 678.709 174.951L677.835 175.845L676.962 176.739C683.499 183.128 692.503 186.25 703.809 186.25V185ZM677.835 175.845L678.709 174.951C672.765 169.142 669.718 160.914 669.718 150.084H668.468H667.218C667.218 161.397 670.416 170.342 676.962 176.739L677.835 175.845ZM814.743 52.5762H813.493V180.529H814.743H815.993V52.5762H814.743ZM814.743 180.529H813.493C813.493 181.827 813.17 182.57 812.742 182.998C812.314 183.426 811.57 183.75 810.272 183.75V185V186.25C811.955 186.25 813.447 185.828 814.509 184.766C815.572 183.704 815.993 182.212 815.993 180.529H814.743ZM810.272 185V183.75H792.176V185V186.25H810.272V185ZM792.176 185V183.75C790.878 183.75 790.135 183.426 789.707 182.998C789.279 182.57 788.955 181.827 788.955 180.529H787.705H786.455C786.455 182.212 786.877 183.704 787.939 184.766C789.001 185.828 790.493 186.25 792.176 186.25V185ZM787.705 180.529H788.955V52.5762H787.705H786.455V180.529H787.705ZM787.705 52.5762H788.955C788.955 51.2786 789.279 50.535 789.707 50.1069C790.135 49.6789 790.878 49.3553 792.176 49.3553V48.1053V46.8553C790.493 46.8553 789.001 47.2769 787.939 48.3391C786.877 49.4014 786.455 50.8932 786.455 52.5762H787.705ZM792.176 48.1053V49.3553H810.272V48.1053V46.8553H792.176V48.1053ZM810.272 48.1053V49.3553C811.57 49.3553 812.314 49.6789 812.742 50.1069C813.17 50.535 813.493 51.2786 813.493 52.5762H814.743H815.993C815.993 50.8932 815.572 49.4014 814.509 48.3391C813.447 47.2769 811.955 46.8553 810.272 46.8553V48.1053ZM850.426 176.058L851.299 175.164V175.164L850.426 176.058ZM850.426 57.0471L851.299 57.9413V57.9413L850.426 57.0471ZM924.728 57.26L923.844 58.1439L923.849 58.1491L923.854 58.1542L924.728 57.26ZM904.077 74.5049L903.161 75.3555L903.176 75.3724L903.193 75.3888L904.077 74.5049ZM871.077 74.5049L870.193 73.621V73.621L871.077 74.5049ZM871.077 158.813L870.161 159.664L870.193 159.698L870.226 159.729L871.077 158.813ZM904.077 158.813L904.96 159.697L904.977 159.681L904.992 159.664L904.077 158.813ZM924.728 176.058L925.601 176.952L925.607 176.947L925.612 176.942L924.728 176.058ZM898.967 185V183.75H876.4V185V186.25H898.967V185ZM876.4 185V183.75C865.407 183.75 857.102 180.832 851.299 175.164L850.426 176.058L849.552 176.952C855.955 183.206 864.966 186.25 876.4 186.25V185ZM850.426 176.058L851.299 175.164C845.506 169.505 842.521 161.284 842.521 150.297H841.271H840.021C840.021 161.736 843.14 170.689 849.552 176.952L850.426 176.058ZM841.271 150.297H842.521V82.808H841.271H840.021V150.297H841.271ZM841.271 82.808H842.521C842.521 71.8216 845.506 63.6001 851.299 57.9413L850.426 57.0471L849.552 56.1529C843.14 62.4165 840.021 71.3689 840.021 82.808H841.271ZM850.426 57.0471L851.299 57.9413C857.102 52.2729 865.407 49.3553 876.4 49.3553V48.1053V46.8553C864.966 46.8553 855.955 49.8988 849.552 56.1529L850.426 57.0471ZM876.4 48.1053V49.3553H898.967V48.1053V46.8553H876.4V48.1053ZM898.967 48.1053V49.3553C909.804 49.3553 918.036 52.3365 923.844 58.1439L924.728 57.26L925.612 56.3761C919.213 49.9773 910.271 46.8553 898.967 46.8553V48.1053ZM924.728 57.26L923.854 58.1542C929.651 63.8158 932.633 71.9689 932.633 82.808H933.883H935.133C935.133 71.5055 932.011 62.6266 925.601 56.3658L924.728 57.26ZM933.883 82.808H932.633V89.195H933.883H935.133V82.808H933.883ZM933.883 89.195H932.633C932.633 90.5777 932.302 91.3828 931.861 91.8447C931.43 92.2959 930.694 92.6288 929.412 92.6288V93.8788V95.1288C931.11 95.1288 932.609 94.6811 933.669 93.5709C934.718 92.4717 935.133 90.9348 935.133 89.195H933.883ZM929.412 93.8788V92.6288H911.315V93.8788V95.1288H929.412V93.8788ZM911.315 93.8788V92.6288C910.033 92.6288 909.297 92.2959 908.866 91.8447C908.425 91.3828 908.094 90.5777 908.094 89.195H906.844H905.594C905.594 90.9348 906.008 92.4717 907.058 93.5709C908.117 94.6811 909.617 95.1288 911.315 95.1288V93.8788ZM906.844 89.195H908.094V84.0854H906.844H905.594V89.195H906.844ZM906.844 84.0854H908.094C908.094 79.4397 907.163 75.8233 904.96 73.621L904.077 74.5049L903.193 75.3888C904.681 76.8767 905.594 79.6474 905.594 84.0854H906.844ZM904.077 74.5049L904.992 73.6543C902.793 71.2852 899.162 70.2743 894.496 70.2743V71.5243V72.7743C898.914 72.7743 901.67 73.7505 903.161 75.3555L904.077 74.5049ZM894.496 71.5243V70.2743H880.658V71.5243V72.7743H894.496V71.5243ZM880.658 71.5243V70.2743C876.108 70.2743 872.518 71.2963 870.193 73.621L871.077 74.5049L871.961 75.3888C873.61 73.7394 876.407 72.7743 880.658 72.7743V71.5243ZM871.077 74.5049L870.193 73.621C867.991 75.8233 867.059 79.4397 867.059 84.0854H868.309H869.559C869.559 79.6474 870.473 76.8767 871.961 75.3888L871.077 74.5049ZM868.309 84.0854H867.059V149.02H868.309H869.559V84.0854H868.309ZM868.309 149.02H867.059C867.059 153.678 867.996 157.332 870.161 159.664L871.077 158.813L871.993 157.963C870.468 156.32 869.559 153.445 869.559 149.02H868.309ZM871.077 158.813L870.226 159.729C872.552 161.889 876.128 162.831 880.658 162.831V161.581V160.331C876.387 160.331 873.576 159.428 871.928 157.897L871.077 158.813ZM880.658 161.581V162.831H894.496V161.581V160.331H880.658V161.581ZM894.496 161.581V162.831C899.142 162.831 902.758 161.9 904.96 159.697L904.077 158.813L903.193 157.929C901.705 159.417 898.934 160.331 894.496 160.331V161.581ZM904.077 158.813L904.992 159.664C907.157 157.332 908.094 153.678 908.094 149.02H906.844H905.594C905.594 153.445 904.686 156.32 903.161 157.963L904.077 158.813ZM906.844 149.02H908.094V135.607H906.844H905.594V149.02H906.844ZM906.844 135.607H908.094C908.094 134.634 907.85 133.674 907.143 132.967C906.435 132.259 905.476 132.015 904.502 132.015V133.265V134.515C905.09 134.515 905.302 134.661 905.375 134.735C905.448 134.808 905.594 135.019 905.594 135.607H906.844ZM904.502 133.265V132.015H891.728V133.265V134.515H904.502V133.265ZM891.728 133.265V132.015C890.431 132.015 889.687 131.692 889.259 131.264C888.831 130.836 888.507 130.092 888.507 128.794H887.257H886.007C886.007 130.477 886.429 131.969 887.491 133.031C888.554 134.094 890.045 134.515 891.728 134.515V133.265ZM887.257 128.794H888.507V114.317H887.257H886.007V128.794H887.257ZM887.257 114.317H888.507C888.507 113.02 888.831 112.276 889.259 111.848C889.687 111.42 890.431 111.096 891.728 111.096V109.846V108.596C890.045 108.596 888.554 109.018 887.491 110.08C886.429 111.142 886.007 112.634 886.007 114.317H887.257ZM891.728 109.846V111.096H928.986V109.846V108.596H891.728V109.846ZM928.986 109.846V111.096C930.425 111.096 931.275 111.455 931.774 111.954C932.273 112.453 932.633 113.303 932.633 114.743H933.883H935.133C935.133 112.918 934.675 111.32 933.542 110.187C932.409 109.053 930.811 108.596 928.986 108.596V109.846ZM933.883 114.743H932.633V150.297H933.883H935.133V114.743H933.883ZM933.883 150.297H932.633C932.633 161.135 929.651 169.367 923.844 175.174L924.728 176.058L925.612 176.942C932.011 170.543 935.133 161.602 935.133 150.297H933.883ZM924.728 176.058L923.854 175.164C918.048 180.835 909.812 183.75 898.967 183.75V185V186.25C910.263 186.25 919.201 183.204 925.601 176.952L924.728 176.058ZM985.813 51.0859L984.695 51.6449L984.703 51.6595L984.71 51.6738L985.813 51.0859ZM1028.82 131.775L1027.72 132.363L1028.07 133.025H1028.82V131.775ZM1029.67 131.775V133.025H1030.92V131.775H1029.67ZM1029.46 180.742L1030.58 180.183L1030.57 180.166L1030.56 180.15L1029.46 180.742ZM986.878 101.543L987.979 100.951L987.625 100.293H986.878V101.543ZM986.026 101.543V100.293H984.776V101.543H986.026ZM981.555 185V183.75H963.885V185V186.25H981.555V185ZM963.885 185V183.75C962.587 183.75 961.844 183.426 961.415 182.998C960.987 182.57 960.664 181.827 960.664 180.529H959.414H958.164C958.164 182.212 958.585 183.704 959.648 184.766C960.71 185.828 962.202 186.25 963.885 186.25V185ZM959.414 180.529H960.664V52.5762H959.414H958.164V180.529H959.414ZM959.414 52.5762H960.664C960.664 51.2786 960.987 50.535 961.415 50.1069C961.844 49.6789 962.587 49.3553 963.885 49.3553V48.1053V46.8553C962.202 46.8553 960.71 47.2769 959.648 48.3391C958.585 49.4014 958.164 50.8932 958.164 52.5762H959.414ZM963.885 48.1053V49.3553H979.852V48.1053V46.8553H963.885V48.1053ZM979.852 48.1053V49.3553C982.548 49.3553 983.987 50.2272 984.695 51.6449L985.813 51.0859L986.932 50.5269C985.653 47.9704 983.118 46.8553 979.852 46.8553V48.1053ZM985.813 51.0859L984.71 51.6738L1027.72 132.363L1028.82 131.775L1029.92 131.187L986.917 50.498L985.813 51.0859ZM1028.82 131.775V133.025H1029.67V131.775V130.525H1028.82V131.775ZM1029.67 131.775H1030.92V52.5762H1029.67H1028.42V131.775H1029.67ZM1029.67 52.5762H1030.92C1030.92 51.2786 1031.24 50.535 1031.67 50.1069C1032.1 49.6789 1032.84 49.3553 1034.14 49.3553V48.1053V46.8553C1032.46 46.8553 1030.97 47.2769 1029.9 48.3391C1028.84 49.4014 1028.42 50.8932 1028.42 52.5762H1029.67ZM1034.14 48.1053V49.3553H1051.81V48.1053V46.8553H1034.14V48.1053ZM1051.81 48.1053V49.3553C1053.11 49.3553 1053.85 49.6789 1054.28 50.1069C1054.71 50.535 1055.03 51.2786 1055.03 52.5762H1056.28H1057.53C1057.53 50.8932 1057.11 49.4014 1056.05 48.3391C1054.99 47.2769 1053.5 46.8553 1051.81 46.8553V48.1053ZM1056.28 52.5762H1055.03V180.529H1056.28H1057.53V52.5762H1056.28ZM1056.28 180.529H1055.03C1055.03 181.827 1054.71 182.57 1054.28 182.998C1053.85 183.426 1053.11 183.75 1051.81 183.75V185V186.25C1053.5 186.25 1054.99 185.828 1056.05 184.766C1057.11 183.704 1057.53 182.212 1057.53 180.529H1056.28ZM1051.81 185V183.75H1036.27V185V186.25H1051.81V185ZM1036.27 185V183.75C1034.9 183.75 1033.79 183.442 1032.89 182.876C1031.98 182.309 1031.2 181.435 1030.58 180.183L1029.46 180.742L1028.34 181.301C1029.13 182.888 1030.2 184.143 1031.56 184.995C1032.93 185.849 1034.51 186.25 1036.27 186.25V185ZM1029.46 180.742L1030.56 180.15L987.979 100.951L986.878 101.543L985.777 102.135L1028.36 181.334L1029.46 180.742ZM986.878 101.543V100.293H986.026V101.543V102.793H986.878V101.543ZM986.026 101.543H984.776V180.529H986.026H987.276V101.543H986.026ZM986.026 180.529H984.776C984.776 181.827 984.453 182.57 984.025 182.998C983.597 183.426 982.853 183.75 981.555 183.75V185V186.25C983.238 186.25 984.73 185.828 985.793 184.766C986.855 183.704 987.276 182.212 987.276 180.529H986.026Z" fill="#5D6570" mask="url(#path-1-outside-1_1_8158)"/>
</svg>
